<?xml version="1.0" encoding="utf-8"?>
<svg viewBox="0 0 720 720" xmlns="http://www.w3.org/2000/svg">
  <defs>
    <style>.cls-2{fill:#fff}</style>
  </defs>
  <path fill="#fcc30b" d="M-1.08-1.08h722.16v722.16H-1.08z" id="goal_background" data-name="goal background"/>
  <g id="ENG_text_graphics" data-name="ENG text &amp; graphics" transform="matrix(1, 0, 0, 1, -0.310013, 8.874977)">
    <path class="cls-2" d="M 180 61.63 L 202.1 61.63 L 202.1 68.39 L 189.51 68.39 L 189.51 83.53 L 199.39 83.53 L 199.39 90.23 L 189.51 90.23 L 189.51 107.71 L 202.19 107.71 L 202.19 114.28 L 180 114.28 L 180 61.63 Z M 206.48 61.63 L 213.17 61.63 L 225.98 91.63 L 225.98 61.63 L 233.91 61.63 L 233.91 114.28 L 227.54 114.28 L 214.67 82.82 L 214.67 114.28 L 206.48 114.28 L 206.48 61.63 Z M 240.6 61.63 L 262.7 61.63 L 262.7 68.39 L 250.16 68.39 L 250.16 83.53 L 260 83.53 L 260 90.23 L 250.12 90.23 L 250.12 107.71 L 262.79 107.71 L 262.79 114.28 L 240.6 114.28 L 240.6 61.63 Z M 267.12 61.63 L 279.8 61.63 C 290.33 61.63 296.31 65.01 296.31 75.63 C 296.31 81.94 294.75 86.36 289.81 88.37 L 297.15 114.31 L 287.53 114.31 L 281.23 90.19 L 276.68 90.19 L 276.68 114.31 L 267.12 114.31 L 267.12 61.63 Z M 279.73 84.18 C 285.26 84.18 287.27 81.78 287.27 76.12 C 287.27 70.79 285.78 68.19 280.27 68.19 L 276.7 68.19 L 276.7 84.19 L 279.73 84.18 Z M 301.18 96.92 L 301.18 79.24 C 301.18 67.93 304.63 61.04 316.18 61.04 C 326.97 61.04 330.74 66.63 330.74 76.38 L 330.74 79.11 L 321.57 79.11 L 321.57 76.11 C 321.57 71.04 321.05 68.05 316.31 68.05 C 311.24 68.05 310.85 72.15 310.85 76.96 L 310.85 99 C 310.85 104.46 311.85 107.91 316.57 107.91 C 321.29 107.91 322.35 104.27 322.35 98.55 L 322.35 93.61 L 316.7 93.61 L 316.7 87.61 L 331 87.61 L 331 114.33 L 324.76 114.33 L 324.11 109.19 C 322.68 112.57 320.11 115.04 315.2 115.04 C 304.82 115 301.18 108 301.18 96.92 L 301.18 96.92 Z M 337.32 61.63 L 346.81 61.63 L 346.81 114.28 L 337.32 114.28 L 337.32 61.63 Z M 361.5 61.63 L 371.77 61.63 L 382.3 114.28 L 373.4 114.28 L 371.32 102.12 L 362.15 102.12 L 360 114.28 L 351 114.28 L 361.5 61.63 Z M 370.28 96 L 366.7 73.9 L 363.13 96 L 370.28 96 Z M 400.76 61.63 L 410.31 61.63 L 410.31 107.71 L 423.12 107.71 L 423.12 114.28 L 400.76 114.28 L 400.76 61.63 Z M 427.08 61.63 L 436.57 61.63 L 436.57 114.28 L 427.08 114.28 L 427.08 61.63 Z M 444.18 61.63 L 454.12 61.63 L 461.6 98.09 L 469.33 61.63 L 479 61.63 L 480 114.28 L 472.85 114.28 L 472.07 77.68 L 464.6 114.28 L 458.8 114.28 L 451.2 77.55 L 450.48 114.28 L 443.27 114.28 L 444.18 61.63 Z M 486.49 61.63 L 502 61.63 C 511.43 61.63 515.46 67.09 515.46 76.58 C 515.46 86.91 509.87 90.88 501.35 90.88 L 496.09 90.88 L 496.09 114.28 L 486.53 114.28 L 486.49 61.63 Z M 499.75 84.12 C 505.02 84.12 506.38 82.12 506.38 76.51 C 506.38 70.9 505.67 68.39 499.75 68.39 L 496.05 68.39 L 496.05 84.12 L 499.75 84.12 Z M 524.58 61.63 L 534.85 61.63 L 545.38 114.28 L 536.48 114.28 L 534.4 102.12 L 525.23 102.12 L 523.09 114.28 L 514.09 114.28 L 524.58 61.63 Z M 533.36 96 L 529.78 73.9 L 526.21 96 L 533.36 96 Z M 180 147.63 L 202.1 147.63 L 202.1 154.39 L 189.51 154.39 L 189.51 169.53 L 199.39 169.53 L 199.39 176.23 L 189.51 176.23 L 189.51 193.71 L 202.19 193.71 L 202.19 200.28 L 180 200.28 L 180 147.63 Z M 228.84 147.63 L 239.11 147.63 L 249.64 200.28 L 240.73 200.28 L 238.65 188.12 L 229.49 188.12 L 227.34 200.28 L 218.34 200.28 L 228.84 147.63 Z M 237.61 182 L 234 159.91 L 230.46 182 L 237.61 182 Z M 252.24 183.44 L 252.24 164.66 C 252.24 153.87 255.68 147.04 267.24 147.04 C 278.03 147.04 281.48 153.04 281.48 162.19 L 281.48 166.61 L 272.25 166.61 L 272.25 162.06 C 272.25 157.64 272.18 154.06 267.31 154.06 C 262.44 154.06 261.91 157.83 261.91 162.64 L 261.91 185.46 C 261.91 191.18 263.08 193.91 267.31 193.91 C 272.05 193.91 272.25 190.2 272.25 185.52 L 272.25 180.78 L 281.48 180.78 L 281.48 185 C 281.48 194.3 278.36 201 267.24 201 C 255.68 201 252.24 193.71 252.24 183.44 Z M 286.88 147.63 L 309 147.63 L 309 154.39 L 296.44 154.39 L 296.44 169.53 L 306.32 169.53 L 306.32 176.23 L 296.44 176.23 L 296.44 193.71 L 309.11 193.71 L 309.11 200.28 L 286.88 200.28 L 286.88 147.63 Z M 312.1 184.94 L 320.36 183.31 C 320.62 189.55 322.11 193.58 326.36 193.58 C 329.41 193.58 330.71 191.5 330.71 188.64 C 330.71 184.09 328.37 181.56 324.93 178.57 L 318.3 172.78 C 314.53 169.53 312.19 165.89 312.19 160.04 C 312.19 151.72 317.39 147.04 325.77 147.04 C 335.65 147.04 338.45 153.67 338.97 161.34 L 330.71 162.77 C 330.52 157.83 329.8 154.13 325.58 154.13 C 322.72 154.13 321.16 156.27 321.16 159.07 C 321.16 162.64 322.65 164.59 325.45 167 L 332.01 172.78 C 336.3 176.49 339.88 181.1 339.88 188.06 C 339.88 195.66 334.55 200.99 326.68 200.99 C 317 201 312.49 195.4 312.1 184.94 L 312.1 184.94 Z M 342.39 184.94 L 350.65 183.31 C 350.91 189.55 352.4 193.58 356.65 193.58 C 359.71 193.58 361.01 191.5 361.01 188.64 C 361.01 184.09 358.67 181.56 355.23 178.57 L 348.59 172.78 C 344.82 169.53 342.48 165.89 342.48 160.04 C 342.48 151.72 347.68 147.04 356.07 147.04 C 365.95 147.04 368.75 153.67 369.27 161.34 L 361 162.77 C 360.81 157.83 360.09 154.13 355.87 154.13 C 353.01 154.13 351.44 156.27 351.44 159.07 C 351.44 162.64 352.94 164.59 355.74 167 L 362.3 172.78 C 366.59 176.49 370.17 181.1 370.17 188.06 C 370.17 195.66 364.84 200.99 356.97 200.99 C 347.33 201 342.78 195.4 342.39 184.94 L 342.39 184.94 Z M 374.76 147.63 L 384.25 147.63 L 384.25 200.28 L 374.76 200.28 L 374.76 147.63 Z M 380.76 130.99 L 389.76 130.99 L 382 144 L 376.87 144 L 380.76 130.99 Z M 388.6 147.63 L 397.05 147.63 L 404.05 184.87 L 410.61 147.63 L 419.26 147.63 L 408.66 200.28 L 399.2 200.28 L 388.6 147.63 Z M 423.31 147.63 L 445.41 147.63 L 445.41 154.39 L 432.87 154.39 L 432.87 169.53 L 442.75 169.53 L 442.75 176.23 L 432.87 176.23 L 432.87 193.71 L 445.54 193.71 L 445.54 200.28 L 423.31 200.28 L 423.31 147.63 Z M 449.83 147.63 L 459.39 147.63 L 459.39 193.71 L 472.19 193.71 L 472.19 200.28 L 449.83 200.28 L 449.83 147.63 Z M 360.26 350.75 C 278.399 350.734 227.22 439.341 268.137 510.243 C 309.054 581.144 411.379 581.163 452.323 510.277 C 461.665 494.105 466.582 475.757 466.58 457.08 C 466.58 398.359 418.981 350.755 360.26 350.75 M 352.39 392.75 C 352.39 389.21 355.94 385.31 360.31 385.31 C 364.68 385.31 368.18 389.21 368.18 392.75 L 368.18 429.25 C 368.18 432.78 364.66 436.63 360.31 436.63 C 355.96 436.63 352.39 432.78 352.39 429.25 L 352.39 392.75 Z M 360.28 511.56 C 317.695 511.526 291.116 465.405 312.438 428.542 C 319.388 416.527 330.6 407.563 343.85 403.43 L 343.85 424 C 318.993 436.613 317.111 471.405 340.463 486.626 C 363.815 501.847 394.887 486.08 396.392 458.246 C 397.167 443.922 389.412 430.491 376.62 424 L 376.62 403.42 C 417.296 416.002 429.099 467.899 397.865 496.834 C 387.64 506.306 374.217 511.569 360.28 511.57 M 238.21 456.15 C 238.21 451.33 233.94 447.43 230.04 447.43 L 183.48 447.43 C 179.55 447.43 175.24 451.33 175.24 456.15 C 175.24 460.97 179.55 464.91 183.48 464.91 L 230 464.91 C 233.9 464.91 238.17 460.98 238.17 456.15 M 545.34 456.15 C 545.34 451.33 541.06 447.43 537.16 447.43 L 490.6 447.43 C 486.68 447.43 482.37 451.33 482.37 456.15 C 482.37 460.97 486.68 464.91 490.6 464.91 L 537.16 464.91 C 541.06 464.91 545.34 460.98 545.34 456.15"/>
    <path class="cls-2" d="M360.31 641.21c4.81 0 8.72-4.27 8.72-8.17v-46.56c0-3.92-3.91-8.24-8.72-8.24s-8.77 4.32-8.77 8.24V633c0 3.9 3.94 8.17 8.77 8.17M520.9 548.07c2.39-4.18.63-9.7-2.76-11.63l-40.41-23.13c-3.4-1.95-9.09-.7-11.48 3.49s-.61 9.74 2.8 11.69l40.41 23.12c3.38 1.94 9 .65 11.44-3.54M268.39 616.78c4.18 2.39 9.69.62 11.63-2.76l23.13-40.41c2-3.41.7-9.09-3.49-11.48s-9.75-.61-11.69 2.79l-23.13 40.41c-1.93 3.38-.65 9 3.55 11.45M452.55 616.57c4.17-2.4 5.43-8.05 3.49-11.43l-23.21-40.36c-2-3.41-7.49-5.19-11.67-2.79s-5.45 8.1-3.48 11.51l23.2 40.36c1.95 3.38 7.47 5.12 11.67 2.71M199.89 548.43c2.4 4.17 8 5.43 11.43 3.49l40.35-23.21c3.41-2 5.21-7.49 2.8-11.67s-8.11-5.45-11.5-3.49l-40.37 23.21c-3.38 1.94-5.12 7.48-2.71 11.67M360.31 334.09c4.81 0 8.72-4.27 8.72-8.17v-46.56c0-3.93-3.91-8.24-8.72-8.24s-8.77 4.31-8.77 8.24v46.56c0 3.9 3.94 8.17 8.77 8.17M254.34 395.51c2.4-4.18.64-9.69-2.75-11.63l-40.41-23.12c-3.41-2-9.09-.71-11.49 3.47s-.6 9.75 2.8 11.7l40.41 23.13c3.39 1.94 9 .65 11.44-3.55M420.94 350.23c4.19 2.39 9.69.62 11.63-2.76l23.13-40.41c1.95-3.41.7-9.09-3.48-11.49s-9.75-.61-11.7 2.8l-23.12 40.41c-1.94 3.39-.66 9.05 3.54 11.45M299.45 350.33c4.17-2.4 5.43-8.05 3.49-11.43l-23.21-40.37c-2-3.4-7.49-5.19-11.67-2.78s-5.45 8.1-3.49 11.5l23.21 40.36c2 3.38 7.47 5.13 11.67 2.72M466.13 395.32c2.4 4.18 8.05 5.44 11.43 3.5l40.36-23.21c3.4-2 5.2-7.5 2.8-11.68s-8.1-5.44-11.51-3.48l-40.37 23.21c-3.38 1.94-5.12 7.48-2.71 11.66"/>
  </g>
</svg>