<?xml version="1.0" encoding="utf-8"?>
<svg viewBox="0 0 720 720" xmlns="http://www.w3.org/2000/svg">
  <defs>
    <style>.cls-2{fill:#fff}</style>
  </defs>
  <path fill="#fd9d24" d="M-1.08-1.08h722.16v722.16H-1.08z" id="goal_background" data-name="goal background"/>
  <g id="ENG_text_graphics" data-name="ENG text &amp; graphics" transform="matrix(1, 0, 0, 1, -17.814987, 2.229805)">
    <path class="cls-2" d="M 192.85 97.44 L 192.85 78.66 C 192.85 67.87 196.3 61.04 207.85 61.04 C 218.64 61.04 222.09 67.04 222.09 76.19 L 222.09 80.61 L 212.86 80.61 L 212.86 76.06 C 212.86 71.64 212.79 68.06 207.92 68.06 C 203.05 68.06 202.52 71.83 202.52 76.64 L 202.52 99.46 C 202.52 105.18 203.69 107.91 207.92 107.91 C 212.66 107.91 212.86 104.2 212.86 99.52 L 212.86 94.78 L 222.09 94.78 L 222.09 99 C 222.09 108.3 218.97 115 207.85 115 C 196.3 115 192.85 107.71 192.85 97.44 Z M 226.39 61.63 L 235.88 61.63 L 235.88 114.28 L 226.39 114.28 L 226.39 61.63 Z M 241.34 61.63 L 253.76 61.63 C 266.56 61.63 270.46 66.76 270.46 78.01 L 270.46 97.18 C 270.46 108.75 266.46 114.28 254.15 114.28 L 241.34 114.28 L 241.34 61.63 Z M 253.89 107.58 C 260.45 107.58 260.71 104.07 260.71 97.51 L 260.71 77.36 C 260.71 71.05 260.06 68.45 253.76 68.45 L 250.9 68.45 L 250.9 107.58 L 253.89 107.58 Z M 282.36 61.63 L 292.63 61.63 L 303.16 114.28 L 294.26 114.28 L 292.17 102.12 L 283 102.12 L 280.85 114.28 L 271.85 114.28 L 282.36 61.63 Z M 291.13 96 L 287.56 73.9 L 284 96 L 291.13 96 Z M 305.76 61.63 L 318.17 61.63 C 330.98 61.63 334.88 66.76 334.88 78.01 L 334.88 97.18 C 334.88 108.75 330.88 114.28 318.56 114.28 L 305.76 114.28 L 305.76 61.63 Z M 318.3 107.58 C 324.87 107.58 325.13 104.07 325.13 97.51 L 325.13 77.36 C 325.13 71.05 324.48 68.45 318.13 68.45 L 315.27 68.45 L 315.27 107.58 L 318.3 107.58 Z M 339.3 61.63 L 361.4 61.63 L 361.4 68.39 L 348.85 68.39 L 348.85 83.53 L 358.73 83.53 L 358.73 90.23 L 348.85 90.23 L 348.85 107.71 L 361.53 107.71 L 361.53 114.28 L 339.3 114.28 L 339.3 61.63 Z M 363.15 98.94 L 371.41 97.31 C 371.67 103.55 373.16 107.58 377.41 107.58 C 380.46 107.58 381.76 105.5 381.76 102.64 C 381.76 98.09 379.42 95.56 375.98 92.57 L 369.35 86.78 C 365.58 83.53 363.24 79.89 363.24 74.04 C 363.24 65.72 368.44 61.04 376.82 61.04 C 386.7 61.04 389.5 67.67 390.02 75.34 L 381.76 76.77 C 381.57 71.83 380.85 68.13 376.63 68.13 C 373.77 68.13 372.21 70.27 372.21 73.07 C 372.21 76.64 373.7 78.59 376.5 81 L 383 86.78 C 387.29 90.49 390.87 95.1 390.87 102.06 C 390.87 109.66 385.54 114.99 377.67 114.99 C 368.09 115 363.54 109.4 363.15 98.94 L 363.15 98.94 Z M 407 61.63 L 429.1 61.63 L 429.1 68.39 L 416.58 68.39 L 416.58 83.53 L 426.46 83.53 L 426.46 90.23 L 416.58 90.23 L 416.58 107.71 L 429.26 107.71 L 429.26 114.28 L 407 114.28 L 407 61.63 Z M 192.85 183.44 L 192.85 164.66 C 192.85 153.87 196.3 147.04 207.85 147.04 C 218.64 147.04 222.09 153.04 222.09 162.19 L 222.09 166.61 L 212.86 166.61 L 212.86 162.06 C 212.86 157.64 212.79 154.06 207.92 154.06 C 203.05 154.06 202.52 157.83 202.52 162.64 L 202.52 185.46 C 202.52 191.18 203.69 193.91 207.92 193.91 C 212.66 193.91 212.86 190.2 212.86 185.52 L 212.86 180.78 L 222.09 180.78 L 222.09 185 C 222.09 194.3 218.97 201 207.85 201 C 196.3 201 192.85 193.71 192.85 183.44 Z M 225.29 183.77 L 225.29 164 C 225.29 153.34 229.19 147 240.5 147 C 251.81 147 255.65 153.31 255.65 164 L 255.65 183.76 C 255.65 194.35 251.75 200.98 240.5 200.98 C 229.25 200.98 225.29 194.43 225.29 183.77 L 225.29 183.77 Z M 245.9 186 L 245.9 161.8 C 245.9 157.38 245.18 154.06 240.5 154.06 C 235.82 154.06 235 157.38 235 161.8 L 235 186 C 235 190.36 235.72 193.87 240.46 193.87 C 245.2 193.87 245.9 190.4 245.9 186 Z M 260.84 147.63 L 270.84 147.63 L 278.31 184.09 L 286 147.63 L 295.68 147.63 L 296.68 200.28 L 289.53 200.28 L 288.75 163.68 L 281.27 200.28 L 275.49 200.28 L 267.88 163.55 L 267.17 200.28 L 259.95 200.28 L 260.84 147.63 Z M 301.4 183.25 L 301.4 147.63 L 310.76 147.63 L 310.76 184.35 C 310.76 189.35 311.35 193.84 316.22 193.84 C 321.09 193.84 321.75 189.36 321.75 184.35 L 321.75 147.63 L 331.05 147.63 L 331.05 183.25 C 331.05 194.3 327.99 200.99 316.22 200.99 C 304.45 200.99 301.4 194.3 301.4 183.25 Z M 335.92 147.63 L 342.61 147.63 L 355.42 177.63 L 355.42 147.63 L 363.35 147.63 L 363.35 200.28 L 357 200.28 L 344.13 168.82 L 344.13 200.28 L 335.94 200.28 L 335.92 147.63 Z M 368.94 147.63 L 378.43 147.63 L 378.43 200.28 L 368.94 200.28 L 368.94 147.63 Z M 383.89 147.63 L 396.3 147.63 C 409.11 147.63 413.01 152.76 413.01 164.01 L 413.01 183.18 C 413.01 194.75 409.01 200.28 396.69 200.28 L 383.89 200.28 L 383.89 147.63 Z M 396.43 193.63 C 403 193.63 403.26 190.12 403.26 183.56 L 403.26 163.36 C 403.26 157.05 402.61 154.45 396.26 154.45 L 393.4 154.45 L 393.4 193.58 L 396.43 193.63 Z M 424.9 147.63 L 435.17 147.63 L 445.7 200.28 L 436.8 200.28 L 434.72 188.12 L 425.55 188.12 L 423.41 200.28 L 414.41 200.28 L 424.9 147.63 Z M 433.68 182 L 430.1 159.9 L 426.53 182 L 433.68 182 Z M 448.3 147.63 L 460.72 147.63 C 473.52 147.63 477.42 152.76 477.42 164.01 L 477.42 183.18 C 477.42 194.75 473.42 200.28 461.11 200.28 L 448.3 200.28 L 448.3 147.63 Z M 460.85 193.63 C 467.41 193.63 467.67 190.12 467.67 183.56 L 467.67 163.36 C 467.67 157.05 467.02 154.45 460.72 154.45 L 457.86 154.45 L 457.86 193.58 L 460.85 193.63 Z M 481.84 147.63 L 503.94 147.63 L 503.94 154.39 L 491.4 154.39 L 491.4 169.53 L 501.28 169.53 L 501.28 176.23 L 491.4 176.23 L 491.4 193.71 L 504.07 193.71 L 504.07 200.28 L 481.84 200.28 L 481.84 147.63 Z M 505.7 184.94 L 513.95 183.31 C 514.21 189.55 515.71 193.58 519.95 193.58 C 523.01 193.58 524.31 191.5 524.31 188.64 C 524.31 184.09 521.97 181.56 518.52 178.57 L 511.89 172.78 C 508.12 169.53 505.78 165.89 505.78 160.04 C 505.78 151.72 510.98 147.04 519.37 147.04 C 529.25 147.04 532.04 153.67 532.56 161.34 L 524.31 162.77 C 524.11 157.83 523.4 154.13 519.17 154.13 C 516.31 154.13 514.75 156.27 514.75 159.07 C 514.75 162.64 516.25 164.59 519.04 167 L 525.61 172.78 C 529.9 176.49 533.47 181.1 533.47 188.06 C 533.47 195.66 528.14 200.99 520.28 200.99 C 510.64 201 506.09 195.4 505.7 184.94 L 505.7 184.94 Z M 192.4 270.94 L 200.66 269.31 C 200.92 275.55 202.41 279.58 206.66 279.58 C 209.72 279.58 211.02 277.5 211.02 274.64 C 211.02 270.09 208.68 267.56 205.24 264.57 L 198.61 258.78 C 194.83 255.53 192.49 251.89 192.49 246.04 C 192.49 237.72 197.7 233.04 206.08 233.04 C 215.96 233.04 218.76 239.67 219.28 247.34 L 211 248.77 C 210.81 243.83 210.09 240.13 205.87 240.13 C 203.01 240.13 201.44 242.27 201.44 245.07 C 201.44 248.64 202.94 250.59 205.74 253 L 212.3 258.78 C 216.59 262.49 220.17 267.1 220.17 274.06 C 220.17 281.66 214.84 286.99 206.97 286.99 C 197.34 287 192.79 281.4 192.4 270.94 L 192.4 270.94 Z M 222.75 269.25 L 222.75 233.63 L 232.11 233.63 L 232.11 270.35 C 232.11 275.35 232.7 279.84 237.57 279.84 C 242.44 279.84 243.1 275.36 243.1 270.35 L 243.1 233.63 L 252.4 233.63 L 252.4 269.25 C 252.4 280.3 249.34 286.99 237.57 286.99 C 225.8 286.99 222.75 280.3 222.75 269.25 L 222.75 269.25 Z M 256 270.94 L 264.25 269.31 C 264.51 275.55 266.01 279.58 270.25 279.58 C 273.31 279.58 274.61 277.5 274.61 274.64 C 274.61 270.09 272.27 267.56 268.82 264.57 L 262.19 258.78 C 258.42 255.53 256.08 251.89 256.08 246.04 C 256.08 237.72 261.28 233.04 269.67 233.04 C 279.55 233.04 282.35 239.67 282.86 247.34 L 274.61 248.77 C 274.41 243.83 273.7 240.13 269.47 240.13 C 266.61 240.13 265.05 242.27 265.05 245.07 C 265.05 248.64 266.55 250.59 269.34 253 L 275.91 258.78 C 280.2 262.49 283.77 267.1 283.77 274.06 C 283.77 281.66 278.44 286.99 270.58 286.99 C 260.91 287 256.36 281.4 256 270.94 L 256 270.94 Z M 292 240.71 L 283.61 240.71 L 283.61 233.63 L 309.81 233.63 L 309.81 240.71 L 301.6 240.71 L 301.6 286.28 L 292 286.28 L 292 240.71 Z M 311.93 233.63 L 334 233.63 L 334 240.39 L 321.49 240.39 L 321.49 255.53 L 331.37 255.53 L 331.37 262.23 L 321.49 262.23 L 321.49 279.71 L 334.16 279.71 L 334.16 286.28 L 311.93 286.28 L 311.93 233.63 Z M 337.09 233.63 L 343.78 233.63 L 356.59 263.63 L 356.59 233.63 L 364.52 233.63 L 364.52 286.28 L 358.15 286.28 L 345.28 254.82 L 345.28 286.28 L 337.09 286.28 L 337.09 233.63 Z M 375.11 240.71 L 366.73 240.71 L 366.73 233.63 L 392.92 233.63 L 392.92 240.71 L 384.73 240.71 L 384.73 286.28 L 375.11 286.28 L 375.11 240.71 Z M 401.63 233.63 L 411.9 233.63 L 422.43 286.28 L 413.53 286.28 L 411.45 274.12 L 402.28 274.12 L 400.14 286.28 L 391.14 286.28 L 401.63 233.63 Z M 410.41 268 L 406.83 245.9 L 403.26 268 L 410.41 268 Z M 408.07 217 L 417.07 217 L 409.33 230 L 404.2 230 L 408.07 217 Z M 420.61 233.63 L 429.06 233.63 L 436.06 270.87 L 442.62 233.63 L 451.27 233.63 L 440.67 286.28 L 431.25 286.28 L 420.61 233.63 Z M 454 233.63 L 476.1 233.63 L 476.1 240.39 L 463.51 240.39 L 463.51 255.53 L 473.39 255.53 L 473.39 262.23 L 463.51 262.23 L 463.51 279.71 L 476.19 279.71 L 476.19 286.28 L 454 286.28 L 454 233.63 Z M 479.37 233.63 L 488.86 233.63 L 488.86 286.28 L 479.37 286.28 L 479.37 233.63 Z M 493 270.94 L 501.25 269.31 C 501.51 275.55 503.01 279.58 507.25 279.58 C 510.31 279.58 511.61 277.5 511.61 274.64 C 511.61 270.09 509.27 267.56 505.82 264.57 L 499.19 258.78 C 495.42 255.53 493.08 251.89 493.08 246.04 C 493.08 237.72 498.28 233.04 506.67 233.04 C 516.55 233.04 519.34 239.67 519.87 247.34 L 511.61 248.77 C 511.41 243.83 510.7 240.13 506.47 240.13 C 503.61 240.13 502.05 242.27 502.05 245.07 C 502.05 248.64 503.55 250.59 506.34 253 L 512.91 258.78 C 517.2 262.49 520.77 267.1 520.77 274.06 C 520.77 281.66 515.44 286.99 507.58 286.99 C 498 287 493.41 281.4 493 270.94 L 493 270.94 Z M 166.8 566 L 261.54 566 C 263.318 566.005 264.435 564.083 263.55 562.54 C 263.465 562.393 263.365 562.255 263.25 562.13 L 263.12 561.99 L 216 501 L 215.54 500.5 C 215.1 500.015 214.475 499.739 213.82 499.74 C 213.258 499.753 212.72 499.966 212.3 500.34 L 212.01 500.67 L 211.57 501.16 L 165.57 561.51 L 164.86 562.37 C 163.859 563.858 164.845 565.872 166.635 565.995 C 166.69 565.998 166.745 566 166.8 566 L 166.8 566 Z M 261.25 574.61 L 166.33 574.61 C 165.043 574.61 164 575.653 164 576.94 L 164 651.22 C 163.994 652.511 165.039 653.56 166.33 653.56 L 196.88 653.56 L 196.88 606.82 C 196.874 605.535 197.915 604.49 199.2 604.49 L 227.56 604.49 C 228.847 604.49 229.89 605.533 229.89 606.82 L 229.89 653.56 L 261.25 653.56 C 262.538 653.554 263.58 652.508 263.58 651.22 L 263.58 576.94 C 263.58 575.653 262.537 574.61 261.25 574.61 Z M 589.33 555.17 L 495.33 555.17 C 494.076 555.142 493.041 556.145 493.03 557.4 L 493.03 652.27 C 493.052 653.52 494.08 654.517 495.33 654.5 L 589.33 654.5 C 590.582 654.522 591.614 653.522 591.63 652.27 L 591.63 557.4 C 591.619 556.145 590.584 555.142 589.33 555.17 M 537.92 617.1 C 537.915 618.356 536.886 619.367 535.63 619.35 L 507.56 619.35 C 506.301 619.367 505.266 618.359 505.25 617.1 L 505.25 600.05 C 505.266 598.792 506.302 597.788 507.56 597.81 L 535.63 597.81 C 536.884 597.788 537.915 598.795 537.92 600.05 L 537.92 617.1 Z M 537.92 585.58 C 537.904 586.83 536.88 587.831 535.63 587.82 L 507.56 587.82 C 506.305 587.837 505.272 586.835 505.25 585.58 L 505.25 568.51 C 505.272 567.255 506.305 566.253 507.56 566.27 L 535.63 566.27 C 536.882 566.253 537.909 567.258 537.92 568.51 L 537.92 585.58 Z M 580.82 617.1 C 580.815 618.36 579.78 619.372 578.52 619.35 L 550.46 619.35 C 549.2 619.372 548.165 618.36 548.16 617.1 L 548.16 600.05 C 548.171 598.794 549.204 597.788 550.46 597.81 L 578.52 597.81 C 579.776 597.788 580.809 598.794 580.82 600.05 L 580.82 617.1 Z M 580.82 585.58 C 580.804 586.834 579.774 587.837 578.52 587.82 L 550.46 587.82 C 549.206 587.837 548.176 586.834 548.16 585.58 L 548.16 568.51 C 548.171 567.254 549.204 566.248 550.46 566.27 L 578.52 566.27 C 579.776 566.248 580.809 567.254 580.82 568.51 L 580.82 585.58 Z M 370.93 335 L 279 335 C 277.759 335 276.754 336.009 276.76 337.25 L 276.76 651.43 C 276.76 652.669 277.761 653.674 279 653.68 L 370.95 653.68 C 372.192 653.675 373.199 652.672 373.21 651.43 L 373.21 337.2 C 373.204 335.956 372.194 334.95 370.95 334.95 M 316.25 617.88 C 316.25 618.544 315.714 619.085 315.05 619.09 L 294 619.09 C 293.336 619.085 292.8 618.544 292.8 617.88 L 292.8 594.42 C 292.8 593.757 293.337 593.22 294 593.22 L 315 593.22 C 315.663 593.22 316.2 593.757 316.2 594.42 L 316.25 617.88 Z M 316.25 564 C 316.256 564.665 315.715 565.206 315.05 565.2 L 294 565.2 C 293.335 565.206 292.794 564.665 292.8 564 L 292.8 540.54 C 292.794 539.875 293.335 539.334 294 539.34 L 315 539.34 C 315.665 539.334 316.206 539.875 316.2 540.54 L 316.25 564 Z M 316.25 510.13 C 316.25 510.793 315.713 511.33 315.05 511.33 L 294 511.33 C 293.337 511.33 292.8 510.793 292.8 510.13 L 292.8 486.66 C 292.8 485.996 293.336 485.455 294 485.45 L 315 485.45 C 315.664 485.455 316.2 485.996 316.2 486.66 L 316.25 510.13 Z M 316.25 456.24 C 316.25 456.904 315.714 457.445 315.05 457.45 L 294 457.45 C 293.336 457.445 292.8 456.904 292.8 456.24 L 292.8 432.77 C 292.8 432.109 293.339 431.574 294 431.58 L 315 431.58 C 315.661 431.574 316.2 432.109 316.2 432.77 L 316.25 456.24 Z M 316.25 402.37 C 316.25 403.033 315.713 403.57 315.05 403.57 L 294 403.57 C 293.337 403.57 292.8 403.033 292.8 402.37 L 292.8 378.9 C 292.8 378.237 293.337 377.7 294 377.7 L 315 377.7 C 315.663 377.7 316.2 378.237 316.2 378.9 L 316.25 402.37 Z M 357.54 617.88 C 357.54 618.552 356.992 619.096 356.32 619.09 L 335.32 619.09 C 334.652 619.09 334.11 618.548 334.11 617.88 L 334.11 594.42 C 334.11 593.753 334.653 593.214 335.32 593.22 L 356.32 593.22 C 356.991 593.209 357.54 593.749 357.54 594.42 L 357.54 617.88 Z M 357.54 564 C 357.54 564.671 356.991 565.211 356.32 565.2 L 335.32 565.2 C 334.651 565.211 334.104 564.669 334.11 564 L 334.11 540.54 C 334.104 539.871 334.651 539.329 335.32 539.34 L 356.32 539.34 C 356.991 539.329 357.54 539.869 357.54 540.54 L 357.54 564 Z M 357.54 510.13 C 357.534 510.798 356.988 511.336 356.32 511.33 L 335.32 511.33 C 334.656 511.33 334.115 510.794 334.11 510.13 L 334.11 486.66 C 334.11 485.992 334.652 485.45 335.32 485.45 L 356.32 485.45 C 356.992 485.444 357.54 485.988 357.54 486.66 L 357.54 510.13 Z M 357.54 456.24 C 357.54 456.912 356.992 457.456 356.32 457.45 L 335.32 457.45 C 334.652 457.45 334.11 456.908 334.11 456.24 L 334.11 432.77 C 334.115 432.107 334.657 431.574 335.32 431.58 L 356.32 431.58 C 356.987 431.569 357.535 432.103 357.54 432.77 L 357.54 456.24 Z M 357.54 402.37 C 357.534 403.038 356.988 403.576 356.32 403.57 L 335.32 403.57 C 334.656 403.57 334.115 403.034 334.11 402.37 L 334.11 378.9 C 334.11 378.233 334.653 377.694 335.32 377.7 L 356.32 377.7 C 356.991 377.689 357.54 378.229 357.54 378.9 L 357.54 402.37 Z M 591.53 545.62 C 591.536 546.666 590.686 547.516 589.64 547.51 L 495.07 547.51 C 494.026 547.51 493.18 546.664 493.18 545.62 L 493.18 526.71 C 493.18 525.666 494.026 524.82 495.07 524.82 L 589.64 524.82 C 590.684 524.82 591.53 525.666 591.53 526.71 L 591.53 545.62 Z M 482 394.29 C 481.588 392.7 479.712 392.013 478.37 392.96 L 478.2 393.08 L 477.43 394.08 L 387.05 508.69 L 386.63 509.25 C 386.149 509.724 385.87 510.365 385.85 511.04 L 385.85 651.9 C 385.85 653.141 386.859 654.146 388.1 654.14 L 480 654.14 C 481.241 654.146 482.25 653.141 482.25 651.9 L 482.25 395.23 C 482.237 394.902 482.151 394.581 482 394.29 Z M 443.95 456.54 L 444.6 455.73 C 450.78 447.79 461.2 434.97 466.28 428.73 L 466.95 427.93 C 468.208 426.394 470.658 426.796 471.36 428.654 C 471.412 428.792 471.452 428.935 471.48 429.08 L 471.48 458.08 C 471.471 459.472 470.371 460.611 468.98 460.67 L 445.93 460.67 C 443.93 460.598 442.758 458.388 443.82 456.691 C 443.855 456.636 443.891 456.582 443.93 456.53 L 443.95 456.54 Z M 429.65 617.08 C 429.656 618.321 428.651 619.33 427.41 619.33 L 400 619.33 C 398.757 619.33 397.75 618.323 397.75 617.08 L 397.75 599.93 C 397.75 598.689 398.759 597.684 400 597.69 L 427.4 597.69 C 428.637 597.69 429.64 598.693 429.64 599.93 L 429.65 617.08 Z M 429.65 585.39 C 429.656 586.631 428.651 587.64 427.41 587.64 L 400 587.64 C 398.757 587.64 397.75 586.633 397.75 585.39 L 397.75 568.24 C 397.75 566.999 398.759 565.994 400 566 L 427.4 566 C 428.643 565.994 429.651 567.007 429.64 568.25 L 429.65 585.39 Z M 429.65 553.7 C 429.65 554.937 428.647 555.94 427.41 555.94 L 400 555.94 C 398.761 555.94 397.756 554.939 397.75 553.7 L 397.75 536.54 C 397.75 535.297 398.757 534.29 400 534.29 L 427.4 534.29 C 428.641 534.29 429.646 535.299 429.64 536.54 L 429.65 553.7 Z M 429.73 484.24 L 429.73 522 C 429.725 523.24 428.72 524.245 427.48 524.25 L 400.08 524.25 C 398.832 524.256 397.816 523.248 397.81 522 L 397.81 517.24 C 397.819 516.951 397.88 516.667 397.99 516.4 C 398.025 516.309 398.069 516.222 398.12 516.14 C 398.181 516.039 398.248 515.943 398.32 515.85 C 398.39 515.74 398.49 515.6 398.58 515.48 C 402.08 510.48 417.89 490.99 424.53 482.85 L 425.19 482.05 C 425.675 481.436 426.408 481.069 427.19 481.05 C 428.424 481.063 429.475 481.947 429.7 483.16 L 429.73 484.24 Z M 471.54 617.08 C 471.546 618.321 470.541 619.33 469.3 619.33 L 441.9 619.33 C 440.653 619.336 439.64 618.327 439.64 617.08 L 439.64 599.93 C 439.646 598.687 440.657 597.684 441.9 597.69 L 469.3 597.69 C 470.537 597.69 471.54 598.693 471.54 599.93 L 471.54 617.08 Z M 471.54 585.39 C 471.546 586.631 470.541 587.64 469.3 587.64 L 441.9 587.64 C 440.653 587.646 439.64 586.637 439.64 585.39 L 439.64 568.24 C 439.634 566.991 440.651 565.979 441.9 565.99 L 469.3 565.99 C 470.541 565.99 471.546 566.999 471.54 568.24 L 471.54 585.39 Z M 471.54 553.7 C 471.535 554.935 470.535 555.935 469.3 555.94 L 441.9 555.94 C 440.657 555.946 439.646 554.943 439.64 553.7 L 439.64 536.54 C 439.64 535.293 440.653 534.284 441.9 534.29 L 469.3 534.29 C 470.541 534.29 471.546 535.299 471.54 536.54 L 471.54 553.7 Z M 471.54 522 C 471.54 523.237 470.537 524.24 469.3 524.24 L 441.9 524.24 C 440.657 524.246 439.646 523.243 439.64 522 L 439.64 504.84 C 439.646 503.597 440.657 502.594 441.9 502.6 L 469.3 502.6 C 470.537 502.6 471.54 503.603 471.54 504.84 L 471.54 522 Z M 471.54 490.3 C 471.54 491.537 470.537 492.54 469.3 492.54 L 441.9 492.54 C 440.657 492.546 439.646 491.543 439.64 490.3 L 439.64 473.14 C 439.64 471.893 440.653 470.884 441.9 470.89 L 469.3 470.89 C 470.541 470.89 471.546 471.899 471.54 473.14 L 471.54 490.3 Z"/>
  </g>
</svg>