<?xml version="1.0" encoding="utf-8"?>
<svg viewBox="0 0 720 720" xmlns="http://www.w3.org/2000/svg">
  <defs>
    <style>.cls-2{fill:#fff}</style>
  </defs>
  <path fill="#dd1367" d="M-1.08-1.08h722.16v722.16H-1.08z" id="goal_background" data-name="goal background"/>
  <g id="ENG_text_graphics" data-name="ENG text &amp; graphics" transform="matrix(1, 0, 0, 1, -34.832993, 16.650742)">
    <path class="cls-2" d="M 194.73 61.63 L 207.41 61.63 C 217.94 61.63 223.92 65.01 223.92 75.63 C 223.92 81.94 222.36 86.36 217.42 88.37 L 224.76 114.31 L 215.14 114.31 L 208.84 90.19 L 204.29 90.19 L 204.29 114.31 L 194.73 114.31 L 194.73 61.63 Z M 207.34 84.18 C 212.87 84.18 214.88 81.78 214.88 76.12 C 214.88 70.79 213.39 68.19 207.88 68.19 L 204.31 68.19 L 204.31 84.19 L 207.34 84.18 Z M 229.51 61.63 L 251.61 61.63 L 251.61 68.39 L 239.06 68.39 L 239.06 83.53 L 248.94 83.53 L 248.94 90.23 L 239.06 90.23 L 239.06 107.71 L 251.74 107.71 L 251.74 114.28 L 229.51 114.28 L 229.51 61.63 Z M 255.63 61.63 L 268.05 61.63 C 280.86 61.63 284.76 66.76 284.76 78.01 L 284.76 97.18 C 284.76 108.75 280.76 114.28 268.44 114.28 L 255.63 114.28 L 255.63 61.63 Z M 268.18 107.58 C 274.74 107.58 275.01 104.07 275.01 97.51 L 275.01 77.36 C 275.01 71.05 274.36 68.45 268.01 68.45 L 265.15 68.45 L 265.15 107.58 L 268.18 107.58 Z M 289.76 97.25 L 289.76 61.63 L 299.12 61.63 L 299.12 98.35 C 299.12 103.35 299.7 107.84 304.58 107.84 C 309.46 107.84 310.11 103.36 310.11 98.35 L 310.11 61.63 L 319.4 61.63 L 319.4 97.25 C 319.4 108.25 316.4 114.99 304.58 114.99 C 292.76 114.99 289.76 108.3 289.76 97.25 Z M 344.42 80.61 L 344.42 76.06 C 344.42 71.64 344.36 68.06 339.48 68.06 C 334.6 68.06 334.09 71.83 334.09 76.64 L 334.09 99.46 C 334.09 105.18 335.26 107.91 339.48 107.91 C 344.23 107.91 344.42 104.2 344.42 99.52 L 344.42 94.78 L 353.66 94.78 L 353.66 99 C 353.66 107.91 350.79 114.47 340.72 115 L 340.72 118.25 C 345.53 118.25 348.78 120.4 348.78 124.43 C 348.78 129.04 344.68 130.99 339.94 130.99 C 338.354 130.974 336.779 130.735 335.26 130.28 L 335.26 126.18 C 336.396 126.534 337.58 126.709 338.77 126.7 C 341.04 126.7 342.77 126.05 342.77 124.3 C 342.77 121.96 340.11 121.11 337.05 120.79 L 337.05 114.87 C 327.43 113.87 324.44 106.94 324.44 97.45 L 324.44 78.66 C 324.44 67.87 327.89 61.04 339.44 61.04 C 350.23 61.04 353.68 67.04 353.68 76.19 L 353.68 80.61 L 344.42 80.61 Z M 366.52 61.63 L 376.79 61.63 L 387.33 114.28 L 378.42 114.28 L 376.34 102.12 L 367.17 102.12 L 365 114.28 L 356 114.28 L 366.52 61.63 Z M 368.52 51.63 C 366.83 51.63 366.24 52.63 366.24 54.3 L 361.69 54.3 C 361.69 49.62 362.99 46.11 367.22 46.11 C 370.4 46.11 372.55 49.11 375.34 49.11 C 376.84 49.11 377.42 48.2 377.42 46.51 L 381.71 46.51 C 381.71 50.6 381 54.7 376.77 54.7 C 373.41 54.74 371.2 51.68 368.54 51.68 L 368.52 51.63 Z M 375.3 96 L 371.72 73.9 L 368.15 96 L 375.3 96 Z M 389.53 97.77 L 389.53 78 C 389.53 67.34 393.43 61 404.74 61 C 416.05 61 419.89 67.31 419.89 78 L 419.89 97.77 C 419.89 108.36 415.99 114.99 404.74 114.99 C 393.49 114.99 389.53 108.43 389.53 97.77 Z M 410.14 100 L 410.14 75.8 C 410.14 71.38 409.42 68.06 404.74 68.06 C 400.06 68.06 399.28 71.38 399.28 75.8 L 399.28 100 C 399.28 104.36 400 107.87 404.74 107.87 C 409.48 107.87 410.14 104.4 410.14 100 Z M 439.39 61.63 L 451.8 61.63 C 464.61 61.63 468.51 66.76 468.51 78.01 L 468.51 97.18 C 468.51 108.75 464.51 114.28 452.19 114.28 L 439.39 114.28 L 439.39 61.63 Z M 451.93 107.58 C 458.5 107.58 458.76 104.07 458.76 97.51 L 458.76 77.36 C 458.76 71.05 458.11 68.45 451.76 68.45 L 448.9 68.45 L 448.9 107.58 L 451.93 107.58 Z M 481.38 61.63 L 491.65 61.63 L 502.18 114.28 L 493.27 114.28 L 491.19 102.12 L 482 102.12 L 479.85 114.28 L 470.85 114.28 L 481.38 61.63 Z M 490.15 96 L 486.58 73.9 L 483 96 L 490.15 96 Z M 504.19 98.94 L 512.45 97.31 C 512.71 103.55 514.2 107.58 518.45 107.58 C 521.5 107.58 522.8 105.5 522.8 102.64 C 522.8 98.09 520.46 95.56 517.02 92.57 L 510.39 86.78 C 506.62 83.53 504.28 79.89 504.28 74.04 C 504.28 65.72 509.48 61.04 517.86 61.04 C 527.74 61.04 530.54 67.67 531.06 75.34 L 522.8 76.77 C 522.61 71.83 521.89 68.13 517.67 68.13 C 514.81 68.13 513.25 70.27 513.25 73.07 C 513.25 76.64 514.74 78.59 517.54 81 L 524.1 86.78 C 528.39 90.49 531.97 95.1 531.97 102.06 C 531.97 109.66 526.64 114.99 518.77 114.99 C 509.13 115 504.58 109.4 504.19 98.94 Z M 194.73 147.63 L 207.15 147.63 C 219.95 147.63 223.85 152.76 223.85 164.01 L 223.85 183.18 C 223.85 194.75 219.85 200.28 207.54 200.28 L 194.73 200.28 L 194.73 147.63 Z M 207.28 193.63 C 213.84 193.63 214.1 190.12 214.1 183.56 L 214.1 163.36 C 214.1 157.05 213.45 154.45 207.15 154.45 L 204.29 154.45 L 204.29 193.58 L 207.28 193.63 Z M 229.25 147.63 L 251.35 147.63 L 251.35 154.39 L 238.8 154.39 L 238.8 169.53 L 248.68 169.53 L 248.68 176.23 L 238.8 176.23 L 238.8 193.71 L 251.48 193.71 L 251.48 200.28 L 229.25 200.28 L 229.25 147.63 Z M 254.08 184.94 L 262.33 183.31 C 262.59 189.55 264.08 193.58 268.33 193.58 C 271.39 193.58 272.69 191.5 272.69 188.64 C 272.69 184.09 270.35 181.56 266.9 178.57 L 260.27 172.78 C 256.5 169.53 254.16 165.89 254.16 160.04 C 254.16 151.72 259.36 147.04 267.75 147.04 C 277.63 147.04 280.42 153.67 280.94 161.34 L 272.69 162.77 C 272.49 157.83 271.78 154.13 267.55 154.13 C 264.69 154.13 263.13 156.27 263.13 159.07 C 263.13 162.64 264.63 164.59 267.42 167 L 273.99 172.78 C 278.28 176.49 281.85 181.1 281.85 188.06 C 281.85 195.66 276.52 200.99 268.66 200.99 C 259 201 254.46 195.4 254.08 184.94 Z M 286.05 147.63 L 295.54 147.63 L 295.54 200.28 L 286.05 200.28 L 286.05 147.63 Z M 301.13 182.92 L 301.13 165.24 C 301.13 153.93 304.58 147.04 316.13 147.04 C 326.92 147.04 330.69 152.63 330.69 162.38 L 330.69 165.11 L 321.52 165.11 L 321.52 162.11 C 321.52 157.04 321 154.05 316.26 154.05 C 311.19 154.05 310.8 158.15 310.8 162.96 L 310.8 184.96 C 310.8 190.42 311.8 193.87 316.52 193.87 C 321.24 193.87 322.31 190.23 322.31 184.51 L 322.31 179.57 L 316.65 179.57 L 316.65 173.52 L 331 173.52 L 331 200.24 L 324.76 200.24 L 324.11 195.1 C 322.68 198.48 320.11 200.95 315.2 200.95 C 304.77 201 301.13 194 301.13 182.92 Z M 336.23 183.25 L 336.23 147.63 L 345.59 147.63 L 345.59 184.35 C 345.59 189.35 346.18 193.84 351.05 193.84 C 355.92 193.84 356.58 189.36 356.58 184.35 L 356.58 147.63 L 365.87 147.63 L 365.87 183.25 C 365.87 194.3 362.82 200.99 351.05 200.99 C 339.28 200.99 336.23 194.3 336.23 183.25 Z M 379.33 147.63 L 389.6 147.63 L 400.13 200.28 L 391.22 200.28 L 389.14 188.12 L 380 188.12 L 377.85 200.28 L 368.85 200.28 L 379.33 147.63 Z M 388.1 182 L 384.53 159.9 L 381 182 L 388.1 182 Z M 403.7 147.63 L 413.26 147.63 L 413.26 193.71 L 426.06 193.71 L 426.06 200.28 L 403.7 200.28 L 403.7 147.63 Z M 429.38 147.63 L 441.79 147.63 C 454.6 147.63 458.5 152.76 458.5 164.01 L 458.5 183.18 C 458.5 194.75 454.5 200.28 442.18 200.28 L 429.38 200.28 L 429.38 147.63 Z M 441.92 193.63 C 448.49 193.63 448.75 190.12 448.75 183.56 L 448.75 163.36 C 448.75 157.05 448.1 154.45 441.75 154.45 L 438.89 154.45 L 438.89 193.58 L 441.92 193.63 Z M 471.37 147.63 L 481.64 147.63 L 492.17 200.28 L 483.26 200.28 L 481.18 188.12 L 472 188.12 L 469.85 200.28 L 460.85 200.28 L 471.37 147.63 Z M 480.14 182 L 476.57 159.9 L 473 182 L 480.14 182 Z M 495.74 147.63 L 508.16 147.63 C 520.96 147.63 524.86 152.76 524.86 164.01 L 524.86 183.18 C 524.86 194.75 520.86 200.28 508.55 200.28 L 495.74 200.28 L 495.74 147.63 Z M 508.29 193.63 C 514.85 193.63 515.11 190.12 515.11 183.56 L 515.11 163.36 C 515.11 157.05 514.46 154.45 508.11 154.45 L 505.3 154.45 L 505.3 193.58 L 508.29 193.63 Z M 530.25 147.63 L 552.36 147.63 L 552.36 154.39 L 539.81 154.39 L 539.81 169.53 L 549.69 169.53 L 549.69 176.23 L 539.81 176.23 L 539.81 193.71 L 552.49 193.71 L 552.49 200.28 L 530.25 200.28 L 530.25 147.63 Z M 555.08 184.94 L 563.34 183.31 C 563.6 189.55 565.09 193.58 569.34 193.58 C 572.34 193.58 573.69 191.5 573.69 188.64 C 573.69 184.09 571.35 181.56 567.91 178.57 L 561.28 172.78 C 557.51 169.53 555.17 165.89 555.17 160.04 C 555.17 151.72 560.37 147.04 568.75 147.04 C 578.64 147.04 581.43 153.67 581.95 161.34 L 573.69 162.77 C 573.5 157.83 572.78 154.13 568.56 154.13 C 565.7 154.13 564.14 156.27 564.14 159.07 C 564.14 162.64 565.63 164.59 568.43 167 L 574.99 172.78 C 579.29 176.49 582.86 181.1 582.86 188.06 C 582.86 195.66 577.53 200.99 569.66 200.99 C 560 201 555.47 195.4 555.08 184.94 Z M 427 472.8 L 294 472.8 C 293.158 472.848 292.515 473.568 292.56 474.41 L 292.56 514.41 C 292.526 515.244 293.167 515.952 294 516 L 427 516 C 427.855 515.957 428.511 515.225 428.46 514.37 L 428.46 474.37 C 428.477 473.538 427.831 472.843 427 472.8 M 427 387.75 L 294 387.75 C 293.158 387.798 292.515 388.518 292.56 389.36 L 292.56 429.36 C 292.497 430.213 293.146 430.952 294 431 L 427 431 C 427.855 430.957 428.511 430.225 428.46 429.37 L 428.46 389.37 C 428.5 388.523 427.847 387.803 427 387.76 M 425.14 327.33 L 361.3 263.49 C 360.87 263.058 360.17 263.058 359.74 263.49 L 295.9 327.33 C 295.3 327.927 295.571 328.95 296.388 329.172 C 296.483 329.198 296.581 329.21 296.68 329.21 L 424.36 329.21 C 425.207 329.213 425.74 328.299 425.319 327.564 C 425.27 327.478 425.21 327.4 425.14 327.33 Z M 485.07 516.5 L 548.91 452.66 C 549.342 452.23 549.342 451.53 548.91 451.1 L 485.07 387.26 C 484.462 386.66 483.432 386.942 483.216 387.769 C 483.193 387.858 483.181 387.949 483.18 388.04 L 483.18 515.72 C 483.187 516.574 484.117 517.1 484.853 516.667 C 484.932 516.62 485.005 516.564 485.07 516.5 Z M 295.9 576.43 L 359.74 640.26 C 360.168 640.698 360.872 640.698 361.3 640.26 L 425.14 576.43 C 425.74 575.822 425.458 574.792 424.631 574.576 C 424.542 574.553 424.451 574.541 424.36 574.54 L 296.68 574.54 C 295.826 574.547 295.3 575.477 295.733 576.213 C 295.78 576.292 295.836 576.365 295.9 576.43 Z M 236 387.26 L 172.13 451.1 C 171.698 451.53 171.698 452.23 172.13 452.66 L 236 516.5 C 236.597 517.1 237.62 516.829 237.842 516.012 C 237.868 515.917 237.88 515.819 237.88 515.72 L 237.88 388 C 237.853 387.154 236.92 386.654 236.2 387.1 C 236.128 387.146 236.06 387.199 236 387.26 Z"/>
  </g>
</svg>