<?xml version="1.0" encoding="utf-8"?>
<svg viewBox="0 0 720 720" xmlns="http://www.w3.org/2000/svg">
  <defs>
    <style>.cls-2{fill:#fff}</style>
  </defs>
  <path fill="#0a97d9" d="M-1.08-1.08h722.16v722.16H-1.08z" id="goal_background" data-name="goal background"/>
  <g id="ENG_text_graphics" data-name="ENG text &amp; graphics" transform="matrix(1, 0, 0, 1, 1.3004, 20.364994)">
    <path class="cls-2" d="M 216.26 61.63 L 224.71 61.63 L 231.71 98.87 L 238.27 61.63 L 246.92 61.63 L 236.32 114.28 L 226.9 114.28 L 216.26 61.63 Z M 250.58 61.63 L 260.07 61.63 L 260.07 114.28 L 250.58 114.28 L 250.58 61.63 Z M 266.25 61.63 L 278.66 61.63 C 291.47 61.63 295.37 66.76 295.37 78.01 L 295.37 97.18 C 295.37 108.75 291.37 114.28 279.05 114.28 L 266.25 114.28 L 266.25 61.63 Z M 278.79 107.58 C 285.36 107.58 285.62 104.07 285.62 97.51 L 285.62 77.36 C 285.62 71.05 284.97 68.45 278.62 68.45 L 275.8 68.45 L 275.8 107.58 L 278.79 107.58 Z M 308 61.63 L 318.27 61.63 L 328.8 114.28 L 319.89 114.28 L 317.81 102.12 L 308.65 102.12 L 306.5 114.28 L 297.5 114.28 L 308 61.63 Z M 316.75 96 L 313.18 73.9 L 309.6 96 L 316.75 96 Z M 345.93 61.63 L 352.63 61.63 L 365.43 91.63 L 365.43 61.63 L 373.37 61.63 L 373.37 114.28 L 367 114.28 L 354.12 82.82 L 354.12 114.28 L 345.93 114.28 L 345.93 61.63 Z M 387.27 61.63 L 397.54 61.63 L 408.08 114.28 L 399.17 114.28 L 397.09 102.12 L 387.92 102.12 L 385.78 114.28 L 376.78 114.28 L 387.27 61.63 Z M 396.05 96 L 392.47 73.9 L 388.9 96 L 396.05 96 Z M 226.6 147.63 L 236.87 147.63 L 247.4 200.28 L 238.49 200.28 L 236.41 188.12 L 227.25 188.12 L 225.1 200.28 L 216.1 200.28 L 226.6 147.63 Z M 235.37 182 L 231.8 159.9 L 228.22 182 L 235.37 182 Z M 233 131 L 242 131 L 234.27 144 L 229.13 144 L 233 131 Z M 249.35 182.92 L 249.35 165.24 C 249.35 153.93 252.79 147.04 264.35 147.04 C 275.14 147.04 278.91 152.63 278.91 162.38 L 278.91 165.11 L 269.75 165.11 L 269.75 162.11 C 269.75 157.04 269.23 154.05 264.48 154.05 C 259.41 154.05 259.02 158.15 259.02 162.96 L 259.02 184.96 C 259.02 190.42 260.02 193.87 264.74 193.87 C 269.46 193.87 270.53 190.23 270.53 184.51 L 270.53 179.57 L 264.87 179.57 L 264.87 173.52 L 279.17 173.52 L 279.17 200.24 L 272.93 200.24 L 272.28 195.1 C 270.944 198.812 267.318 201.196 263.38 200.95 C 253 201 249.35 194 249.35 182.92 Z M 284.19 183.25 L 284.19 147.63 L 293.55 147.63 L 293.55 184.35 C 293.55 189.35 294.13 193.84 299.01 193.84 C 303.89 193.84 304.53 189.36 304.53 184.35 L 304.53 147.63 L 313.83 147.63 L 313.83 183.25 C 313.83 194.3 310.77 200.99 299.01 200.99 C 287.25 200.99 284.19 194.3 284.19 183.25 Z M 327 147.63 L 337.27 147.63 L 347.8 200.28 L 338.9 200.28 L 336.82 188.12 L 327.65 188.12 L 325.51 200.28 L 316.51 200.28 L 327 147.63 Z M 335.8 182 L 332.22 159.9 L 328.65 182 L 335.8 182 Z M 554.28 526.59 C 545.15 514.26 486.17 439.06 403.48 439.06 C 331.68 439.06 254.87 504.19 254.87 504.19 C 254.87 504.19 226 445.13 167 439.46 C 166.66 439.46 166.29 439.38 165.9 439.38 L 165.53 439.38 C 164.286 439.458 163.309 440.474 163.28 441.72 C 163.453 442.49 163.764 443.222 164.2 443.88 C 171.81 456.51 191.2 492.44 191.2 528.34 C 191.2 564.24 171.67 600.34 164.14 612.96 L 163.63 613.76 C 163.392 614.13 163.263 614.56 163.26 615 C 163.267 616.227 164.217 617.241 165.44 617.33 L 166.07 617.27 C 166.276 617.294 166.484 617.294 166.69 617.27 C 225.9 611.75 254.86 552.51 254.86 552.51 C 254.86 552.51 331.67 617.64 403.47 617.64 C 486.16 617.64 545.14 542.45 554.27 530.14 C 554.52 529.81 554.72 529.51 554.9 529.29 C 555.153 528.717 555.153 528.063 554.9 527.49 C 554.72 527.24 554.52 526.95 554.27 526.64 M 449.46 537.84 C 430.885 537.817 419.3 517.694 428.608 501.619 C 437.915 485.544 461.135 485.573 470.402 501.671 C 472.509 505.33 473.618 509.478 473.62 513.7 C 473.62 527.04 462.8 537.851 449.46 537.84 M 249.45 371.66 C 249.623 371.41 249.836 371.191 250.08 371.01 C 250.464 370.745 250.914 370.593 251.38 370.57 C 251.986 370.569 252.567 370.806 253 371.23 C 253.029 371.271 253.067 371.305 253.11 371.33 C 298.18 414.33 345.47 379.47 355.31 371.33 L 356.31 370.41 C 356.595 370.304 356.897 370.254 357.2 370.26 C 357.54 370.246 357.879 370.297 358.2 370.41 L 359.2 371.33 C 369.03 379.47 416.3 414.33 461.39 371.33 C 461.39 371.33 461.44 371.27 461.48 371.23 C 461.902 370.808 462.473 370.571 463.07 370.57 C 463.54 370.584 463.996 370.738 464.38 371.01 C 464.639 371.187 464.865 371.407 465.05 371.66 C 473.79 380.26 511.54 412.77 551.49 378.05 C 551.938 377.614 552.191 377.015 552.19 376.39 L 552.19 359.89 C 552.201 358.584 551.146 357.52 549.84 357.52 C 549.667 357.539 549.497 357.572 549.33 357.62 L 548.13 358.22 C 535.86 364.38 497.77 378.97 463.22 346.31 C 462.9 346 462.56 345.7 462.22 345.36 C 461.914 345.194 461.568 345.114 461.22 345.13 C 460.968 345.126 460.72 345.188 460.5 345.31 C 460.002 345.438 459.572 345.753 459.3 346.19 C 449.01 354.03 401.73 386.05 359.62 346.77 L 359 346.15 C 358.538 345.715 357.924 345.478 357.29 345.49 C 356.678 345.486 356.089 345.723 355.65 346.15 L 355 346.77 C 312.92 386.05 265.59 354.03 255.3 346.19 C 255.045 345.755 254.628 345.439 254.14 345.31 C 253.906 345.187 253.644 345.125 253.38 345.13 C 253.032 345.114 252.686 345.194 252.38 345.36 C 252.05 345.7 251.71 346 251.38 346.31 C 216.83 378.97 178.77 364.38 166.49 358.22 L 165.28 357.62 C 165.129 357.576 164.975 357.543 164.82 357.52 C 163.509 357.514 162.444 358.579 162.45 359.89 L 162.45 376.39 C 162.441 377.013 162.687 377.612 163.13 378.05 C 203.05 412.77 240.85 380.26 249.59 371.66 M 165.13 297.73 C 164.984 297.681 164.833 297.647 164.68 297.63 C 163.362 297.635 162.299 298.712 162.31 300.03 L 162.31 316.48 C 162.296 317.12 162.546 317.738 163 318.19 C 202.91 352.87 240.7 320.37 249.45 311.79 C 249.605 311.521 249.821 311.291 250.08 311.12 C 250.462 310.853 250.914 310.704 251.38 310.69 C 251.978 310.683 252.556 310.909 252.99 311.32 C 253.02 311.364 253.061 311.399 253.11 311.42 C 298.19 354.42 345.47 319.6 355.3 311.42 L 356.3 310.54 C 356.583 310.414 356.89 310.353 357.2 310.36 C 357.523 310.351 357.843 310.412 358.14 310.54 L 359.14 311.42 C 368.97 319.6 416.25 354.42 461.33 311.42 C 461.33 311.42 461.39 311.37 461.42 311.32 C 461.851 310.909 462.425 310.683 463.02 310.69 C 463.49 310.7 463.946 310.849 464.33 311.12 C 464.595 311.294 464.82 311.522 464.99 311.79 C 473.73 320.37 511.48 352.87 551.43 318.19 C 551.88 317.736 552.129 317.12 552.12 316.48 L 552.12 300 C 552.142 298.689 551.091 297.611 549.78 297.6 C 549.607 297.614 549.436 297.648 549.27 297.7 C 548.9 297.91 548.51 298.11 548.07 298.32 C 535.79 304.47 497.72 319.1 463.16 286.4 C 462.83 286.09 462.49 285.79 462.16 285.4 C 461.845 285.259 461.505 285.184 461.16 285.18 C 460.917 285.196 460.676 285.232 460.44 285.29 C 459.958 285.482 459.542 285.808 459.24 286.23 C 448.94 294.08 401.67 326.08 359.56 286.81 L 358.95 286.21 C 358.485 285.774 357.877 285.522 357.24 285.5 C 356.621 285.526 356.034 285.779 355.59 286.21 L 354.94 286.81 C 312.86 326.08 265.53 294.08 255.24 286.23 C 254.955 285.805 254.546 285.477 254.07 285.29 C 253.824 285.232 253.573 285.195 253.32 285.18 C 252.976 285.188 252.636 285.263 252.32 285.4 C 252.005 285.751 251.671 286.085 251.32 286.4 C 216.76 319.1 178.7 304.47 166.42 298.32 C 165.99 298.11 165.58 297.91 165.2 297.7"/>
  </g>
</svg>