<?xml version="1.0" encoding="utf-8"?>
<svg viewBox="0 0 720 720" xmlns="http://www.w3.org/2000/svg">
  <defs>
    <style>.cls-2{fill:#fff}</style>
  </defs>
  <path fill="#3f7e44" d="M -0.59 -0.59 L 720.59 -0.59 L 720.59 720.59 L -0.59 720.59 L -0.59 -0.59 Z" id="goal_background" data-name="goal background" transform="matrix(0, -1, 1, 0, 0, 720.000061)"/>
  <g id="ENG_text_graphics" data-name="ENG text &amp; graphics" transform="matrix(1, 0, 0, 1, -23.264992, 33.79985)">
    <path class="cls-2" d="M 184.6 61.63 L 194.87 61.63 L 205.4 114.28 L 196.49 114.28 L 194.41 102.12 L 185.25 102.12 L 183.1 114.28 L 174.1 114.28 L 184.6 61.63 Z M 193.37 96 L 189.8 73.9 L 186.22 96 L 193.37 96 Z M 227.56 80.61 L 227.56 76.06 C 227.56 71.64 227.5 68.06 222.62 68.06 C 217.74 68.06 217.23 71.83 217.23 76.64 L 217.23 99.46 C 217.23 105.18 218.4 107.91 222.62 107.91 C 227.37 107.91 227.56 104.2 227.56 99.52 L 227.56 94.78 L 236.79 94.78 L 236.79 99 C 236.79 107.91 233.93 114.47 223.86 115 L 223.86 118.25 C 228.67 118.25 231.92 120.4 231.92 124.43 C 231.92 129.04 227.82 130.99 223.08 130.99 C 221.494 130.974 219.919 130.735 218.4 130.28 L 218.4 126.18 C 219.536 126.534 220.72 126.709 221.91 126.7 C 224.18 126.7 225.91 126.05 225.91 124.3 C 225.91 121.96 223.25 121.11 220.19 120.79 L 220.19 114.87 C 210.57 113.87 207.58 106.94 207.58 97.45 L 207.58 78.66 C 207.58 67.87 211.03 61.04 222.58 61.04 C 233.37 61.04 236.81 67.04 236.81 76.19 L 236.81 80.61 L 227.56 80.61 Z M 249.4 61.63 L 259.67 61.63 L 270.2 114.28 L 261.3 114.28 L 259.22 102.12 L 250.05 102.12 L 247.91 114.28 L 238.91 114.28 L 249.4 61.63 Z M 251.4 51.63 C 249.71 51.63 249.12 52.63 249.12 54.3 L 244.57 54.3 C 244.57 49.62 245.87 46.11 250.1 46.11 C 253.28 46.11 255.43 49.11 258.22 49.11 C 259.72 49.11 260.3 48.2 260.3 46.51 L 264.59 46.51 C 264.59 50.6 263.88 54.7 259.65 54.7 C 256.29 54.74 254.08 51.68 251.42 51.68 L 251.4 51.63 Z M 258.18 96 L 254.6 73.9 L 251 96 L 258.18 96 Z M 272.15 97.77 L 272.15 78 C 272.15 67.34 276.05 61 287.36 61 C 298.67 61 302.51 67.31 302.51 78 L 302.51 97.77 C 302.51 108.36 298.61 114.99 287.36 114.99 C 276.11 114.99 272.15 108.43 272.15 97.77 Z M 292.76 100 L 292.76 75.8 C 292.76 71.38 292.04 68.06 287.36 68.06 C 282.68 68.06 281.9 71.38 281.9 75.8 L 281.9 100 C 281.9 104.36 282.62 107.87 287.36 107.87 C 292.1 107.87 292.76 104.4 292.76 100 Z M 320.64 97.44 L 320.64 78.66 C 320.64 67.87 324.08 61.04 335.64 61.04 C 346.44 61.04 349.88 67.04 349.88 76.19 L 349.88 80.61 L 340.65 80.61 L 340.65 76.06 C 340.65 71.64 340.58 68.06 335.71 68.06 C 330.84 68.06 330.31 71.83 330.31 76.64 L 330.31 99.46 C 330.31 105.18 331.48 107.91 335.71 107.91 C 340.45 107.91 340.65 104.2 340.65 99.52 L 340.65 94.78 L 349.88 94.78 L 349.88 99 C 349.88 108.3 346.76 115 335.64 115 C 324.08 115 320.64 107.71 320.64 97.44 Z M 353.79 97.77 L 353.79 78 C 353.79 67.34 357.69 61 369 61 C 380.31 61 384.14 67.31 384.14 78 L 384.14 97.77 C 384.14 108.36 380.24 114.99 369 114.99 C 357.76 114.99 353.79 108.43 353.79 97.77 Z M 374.39 100.04 L 374.39 75.8 C 374.39 71.38 373.68 68.06 369 68.06 C 364.32 68.06 363.54 71.38 363.54 75.8 L 363.54 100 C 363.54 104.36 364.25 107.87 369 107.87 C 373.75 107.87 374.39 104.4 374.39 100 L 374.39 100.04 Z M 389.28 61.63 L 396 61.63 L 408.81 91.63 L 408.81 61.63 L 416.74 61.63 L 416.74 114.28 L 410.37 114.28 L 397.47 82.82 L 397.47 114.28 L 389.28 114.28 L 389.28 61.63 Z M 428 68.71 L 419.61 68.71 L 419.61 61.63 L 445.81 61.63 L 445.81 68.71 L 437.62 68.71 L 437.62 114.28 L 428 114.28 L 428 68.71 Z M 448.69 61.63 L 461.36 61.63 C 471.89 61.63 477.87 65.01 477.87 75.63 C 477.87 81.94 476.31 86.36 471.37 88.37 L 478.72 114.31 L 469.1 114.31 L 462.79 90.19 L 458.24 90.19 L 458.24 114.31 L 448.69 114.31 L 448.69 61.63 Z M 461.3 84.18 C 466.82 84.18 468.84 81.78 468.84 76.12 C 468.84 70.79 467.34 68.19 461.84 68.19 L 458.26 68.19 L 458.26 84.19 L 461.3 84.18 Z M 491.07 61.63 L 501.34 61.63 L 511.87 114.28 L 503 114.28 L 500.92 102.12 L 491.76 102.12 L 489.61 114.28 L 480.61 114.28 L 491.07 61.63 Z M 499.84 96 L 496.27 73.9 L 492.69 96 L 499.84 96 Z M 536.89 61.63 L 547.16 61.63 L 557.69 114.28 L 548.79 114.28 L 546.71 102.12 L 537.54 102.12 L 535.4 114.28 L 526.4 114.28 L 536.89 61.63 Z M 545.67 96 L 542.09 73.9 L 538.52 96 L 545.67 96 Z M 177.51 147.63 L 187.51 147.63 L 194.98 184.09 L 202.72 147.63 L 212.4 147.63 L 213.4 200.28 L 206.25 200.28 L 205.47 163.68 L 197.99 200.28 L 192.21 200.28 L 184.6 163.55 L 183.89 200.28 L 176.6 200.28 L 177.51 147.63 Z M 218.79 183.25 L 218.79 147.63 L 228.15 147.63 L 228.15 184.35 C 228.15 189.35 228.73 193.84 233.61 193.84 C 238.49 193.84 239.13 189.36 239.13 184.35 L 239.13 147.63 L 248.43 147.63 L 248.43 183.25 C 248.43 194.3 245.37 200.99 233.61 200.99 C 221.85 200.99 218.79 194.3 218.79 183.25 Z M 254 147.63 L 266.41 147.63 C 279.22 147.63 283.12 152.76 283.12 164.01 L 283.12 183.18 C 283.12 194.75 279.12 200.28 266.8 200.28 L 254 200.28 L 254 147.63 Z M 266.54 193.63 C 273.11 193.63 273.37 190.12 273.37 183.56 L 273.37 163.36 C 273.37 157.05 272.72 154.45 266.37 154.45 L 263.51 154.45 L 263.51 193.58 L 266.54 193.63 Z M 295.75 147.63 L 306 147.63 L 316.53 200.28 L 307.62 200.28 L 305.54 188.12 L 296.4 188.12 L 294.25 200.28 L 285.25 200.28 L 295.75 147.63 Z M 304.52 182 L 301 159.91 L 297.37 182 L 304.52 182 Z M 319.86 147.63 L 326.56 147.63 L 339.36 177.63 L 339.36 147.63 L 347.29 147.63 L 347.29 200.28 L 340.92 200.28 L 328.05 168.82 L 328.05 200.28 L 319.86 200.28 L 319.86 147.63 Z M 372.51 166.61 L 372.51 162.06 C 372.51 157.64 372.45 154.06 367.57 154.06 C 362.69 154.06 362.18 157.83 362.18 162.64 L 362.18 185.46 C 362.18 191.18 363.35 193.91 367.57 193.91 C 372.32 193.91 372.51 190.2 372.51 185.52 L 372.51 180.78 L 381.74 180.78 L 381.74 185 C 381.74 193.91 378.88 200.47 368.81 201 L 368.81 204.25 C 373.62 204.25 376.87 206.4 376.87 210.43 C 376.87 215.04 372.77 216.99 368.03 216.99 C 366.444 216.974 364.869 216.735 363.35 216.28 L 363.35 212.18 C 364.486 212.534 365.67 212.709 366.86 212.7 C 369.13 212.7 370.86 212.05 370.86 210.3 C 370.86 207.96 368.2 207.11 365.14 206.79 L 365.14 200.87 C 355.52 199.87 352.53 192.94 352.53 183.45 L 352.53 164.66 C 352.53 153.87 355.98 147.04 367.53 147.04 C 378.32 147.04 381.76 153.04 381.76 162.19 L 381.76 166.61 L 372.51 166.61 Z M 394.35 147.63 L 404.62 147.63 L 415.15 200.28 L 406.25 200.28 L 404.17 188.12 L 395 188.12 L 392.85 200.28 L 383.85 200.28 L 394.35 147.63 Z M 403.12 182 L 399.55 159.9 L 396 182 L 403.12 182 Z M 431.46 182.92 L 431.46 165.24 C 431.46 153.93 434.91 147.04 446.46 147.04 C 457.25 147.04 461.02 152.63 461.02 162.38 L 461.02 165.11 L 451.85 165.11 L 451.85 162.11 C 451.85 157.04 451.33 154.05 446.59 154.05 C 441.52 154.05 441.13 158.15 441.13 162.96 L 441.13 184.96 C 441.13 190.42 442.13 193.87 446.85 193.87 C 451.57 193.87 452.63 190.23 452.63 184.51 L 452.63 179.57 L 447 179.57 L 447 173.52 L 461.3 173.52 L 461.3 200.24 L 455.06 200.24 L 454.41 195.1 C 452.98 198.48 450.41 200.95 445.5 200.95 C 435.1 201 431.46 194 431.46 182.92 Z M 466.69 147.63 L 476.25 147.63 L 476.25 193.71 L 489.05 193.71 L 489.05 200.28 L 466.69 200.28 L 466.69 147.63 Z M 490.61 183.77 L 490.61 164 C 490.61 153.34 494.51 147 505.82 147 C 517.13 147 521 153.35 521 164 L 521 183.76 C 521 194.35 517.1 200.98 505.85 200.98 C 494.6 200.98 490.61 194.43 490.61 183.77 Z M 511.22 186 L 511.22 161.8 C 511.22 157.38 510.5 154.06 505.82 154.06 C 501.14 154.06 500.36 157.38 500.36 161.8 L 500.36 186 C 500.36 190.36 501.08 193.87 505.82 193.87 C 510.56 193.87 511.22 190.4 511.22 186 Z M 526.1 147.63 L 539.1 147.63 C 548.33 147.63 554.51 150.75 554.51 161.15 C 554.51 167.58 551.84 171.15 546.9 171.94 C 553.08 173.11 556 177.53 556 184.94 C 556 195.01 551.06 200.28 541.31 200.28 L 526.1 200.28 L 526.1 147.63 Z M 539 169.14 C 544.72 169.14 546.22 166.61 546.22 161.28 C 546.22 155.69 543.49 154.28 537.64 154.28 L 535.64 154.28 L 535.64 169.1 L 539 169.14 Z M 539.39 193.52 C 545.24 193.52 546.87 190.79 546.87 184.87 C 546.87 178.63 544.79 175.77 539.07 175.77 L 535.69 175.77 L 535.69 193.52 L 539.39 193.52 Z M 568.16 147.63 L 578.43 147.63 L 589 200.28 L 580.09 200.28 L 578 188.12 L 568.84 188.12 L 566.69 200.28 L 557.69 200.28 L 568.16 147.63 Z M 576.93 182 L 573.36 159.9 L 569.78 182 L 576.93 182 Z M 592.27 147.63 L 601.83 147.63 L 601.83 193.71 L 614.63 193.71 L 614.63 200.28 L 592.27 200.28 L 592.27 147.63 Z M 176.73 233.63 L 189.15 233.63 C 201.95 233.63 205.85 238.76 205.85 250.01 L 205.85 269.18 C 205.85 280.75 201.85 286.28 189.54 286.28 L 176.73 286.28 L 176.73 233.63 Z M 189.28 279.58 C 195.84 279.58 196.1 276.07 196.1 269.51 L 196.1 249.36 C 196.1 243.05 195.45 240.45 189.15 240.45 L 186.29 240.45 L 186.29 279.58 L 189.28 279.58 Z M 210.14 269.77 L 210.14 250 C 210.14 239.34 214.04 233 225.35 233 C 236.66 233 240.5 239.31 240.5 250 L 240.5 269.76 C 240.5 280.35 236.6 286.98 225.35 286.98 C 214.1 286.98 210.14 280.43 210.14 269.77 Z M 230.75 272 L 230.75 247.8 C 230.75 243.38 230.03 240.06 225.35 240.06 C 220.67 240.06 219.89 243.38 219.89 247.8 L 219.89 272 C 219.89 276.36 220.61 279.87 225.35 279.87 C 230.09 279.87 230.75 276.4 230.75 272 Z M 258.63 269.44 L 258.63 250.66 C 258.63 239.87 262.08 233.04 273.63 233.04 C 284.42 233.04 287.86 239.04 287.86 248.19 L 287.86 252.61 L 278.63 252.61 L 278.63 248.06 C 278.63 243.64 278.57 240.06 273.69 240.06 C 268.81 240.06 268.3 243.83 268.3 248.64 L 268.3 271.46 C 268.3 277.18 269.47 279.91 273.69 279.91 C 278.44 279.91 278.63 276.2 278.63 271.52 L 278.63 266.78 L 287.86 266.78 L 287.86 271 C 287.86 280.3 284.74 287 273.63 287 C 262.08 287 258.63 279.71 258.63 269.44 Z M 292.62 233.63 L 302.18 233.63 L 302.18 279.71 L 315 279.71 L 315 286.28 L 292.62 286.28 L 292.62 233.63 Z M 318.3 233.63 L 327.79 233.63 L 327.79 286.28 L 318.3 286.28 L 318.3 233.63 Z M 334.74 233.63 L 344.69 233.63 L 352.16 270.09 L 359.9 233.63 L 369.58 233.63 L 370.58 286.28 L 363.43 286.28 L 362.65 249.68 L 355.17 286.28 L 349.39 286.28 L 341.78 249.55 L 341.07 286.28 L 333.85 286.28 L 334.74 233.63 Z M 384.27 233.63 L 394.54 233.63 L 405.07 286.28 L 396.17 286.28 L 394.09 274.12 L 384.92 274.12 L 382.78 286.28 L 373.78 286.28 L 384.27 233.63 Z M 393.05 268 L 389.47 245.9 L 385.9 268 L 393.05 268 Z M 631.58 466.81 C 612.5 440 526.19 332.82 365.48 332.6 C 204.77 332.38 118.16 439.3 99 466.09 C 98.18 467.23 97.48 468.23 96.9 469.09 C 97.48 469.96 98.17 470.95 98.99 472.09 C 118.09 498.91 204.38 606.09 365.12 606.29 C 525.86 606.49 612.42 499.57 631.57 472.8 C 632.41 471.64 633.1 470.66 633.65 469.8 C 633.1 468.96 632.41 467.97 631.58 466.8 M 275.73 400.16 C 277.18 398.04 282 391.98 282.59 391.16 C 283.83 389.57 286.29 389.25 288.01 388.94 C 289.73 388.63 292.01 389.58 292.26 390.86 C 292.51 392.14 291.6 397.12 290.75 397.98 C 288.39 400.42 282.25 403.86 278.87 403.32 C 276.26 402.91 275.23 400.88 275.73 400.11 M 270 411.57 C 270.25 411.27 270.48 411.02 270.58 410.9 C 272.58 408.6 276.63 408.11 279.41 407.68 C 282.19 407.25 285.91 408.61 286.36 410.47 C 286.81 412.33 279.36 415.68 278 416.94 C 274.13 420.5 268.06 427.75 264.52 428.52 C 263.552 428.766 262.527 428.66 261.63 428.22 C 263.95 422.446 266.749 416.876 270 411.57 M 330 535.05 C 327.81 543.61 325.27 546.69 323.1 549.38 C 320.93 552.07 312.91 555.58 307.82 555.2 C 302.73 554.82 302.04 541.2 302.05 534.2 C 302.05 531.78 298.63 538.94 296.86 524.39 C 295.74 515.07 289.74 525.39 289.33 519.14 C 288.92 512.89 285.93 514.14 282.79 510.29 C 279.65 506.44 275.79 510.66 271.4 512.61 C 267.01 514.56 268.84 515.61 262.67 513.61 C 262.51 513.61 262.43 513.52 262.28 513.46 C 256.471 499.664 253.499 484.839 253.54 469.87 C 253.54 466.09 253.75 462.38 254.11 458.7 C 254.311 458.347 254.541 458.013 254.8 457.7 C 260.74 450.7 260.61 449.06 260.61 449.06 L 267.16 446.8 C 273.391 447.805 279.523 449.344 285.49 451.4 C 291.98 453.85 302.2 459.4 308.14 456.95 C 312.44 455.18 315.81 452.84 315.41 449.26 C 314.93 444.77 311.41 443.7 307.11 446.72 C 305.53 447.83 302.18 439.95 299.54 440.34 C 296.9 440.73 302.79 449.61 300.54 449.98 C 298.29 450.35 293.8 440.73 293.03 439.17 C 292.26 437.61 288.8 433.75 285.67 436.69 C 279.06 442.96 268.34 442.56 266.18 444.17 C 259.62 449.07 257.9 442.55 258.05 438.58 C 258.31 437.67 258.58 436.75 258.87 435.86 C 261.02 433.5 268.7 432.73 271.34 434.49 C 274.23 436.43 276.34 434 277.44 432.83 C 278.54 431.66 278.19 429.83 277.44 428.28 C 276.69 426.73 278.89 425.58 280.39 425.19 C 281.89 424.8 286.9 421.3 288.89 420.14 C 290.88 418.98 301.25 417.74 305.89 420.07 C 309.675 422.08 314.352 421.143 317.07 417.83 C 319.355 415.114 322.105 412.825 325.19 411.07 C 326.82 410.32 321.19 405.07 316.58 410.78 C 311.97 416.49 309.58 416.98 307.41 416.98 C 305.24 416.98 292.32 413.73 290.73 409.64 C 289.14 405.55 294.73 402.51 299.56 400.21 C 304.39 397.91 317.38 397.99 320.72 397.21 C 327.5 395.73 336.18 392.33 340.55 395.31 C 344.92 398.29 322.29 403.36 329.71 407.38 C 332.35 408.83 344.31 400.52 348.4 398.38 C 358.04 393.43 339.08 391.76 341.55 381.67 C 344.35 370.26 318.3 374.67 305.31 375.59 C 370.199 334.213 456.523 369.141 474.38 444 C 474.441 445.744 474.255 447.488 473.83 449.18 C 472.83 453.18 465.15 456.67 460.71 450.18 C 459.59 448.54 454.79 444 454.94 451.75 C 455.09 459.5 462.47 460.32 455.31 464.97 C 448.15 469.62 446.84 468.49 443.53 469.66 C 440.22 470.83 437.02 478.81 437.8 483.09 C 438.58 487.37 448.8 499.09 441.22 498.56 C 439.44 498.42 426.07 489.27 423.87 483.39 C 421.55 477.2 419.02 471.14 417.22 466.47 C 415.42 461.8 410.68 460.63 406.67 463.36 C 402.66 466.09 407.78 468.81 404.9 474.64 C 402.02 480.47 399.99 485.64 395.79 480.84 C 384.88 468.3 368.99 474.45 366.52 460.52 C 365.18 452.96 358.68 453.68 353.24 449.39 C 347.8 445.1 344.74 442.81 343.82 445.89 C 343 448.59 360.91 462.82 362.18 466.47 C 364.07 471.88 356.8 476.64 351.47 477.91 C 346.14 479.18 343.85 474.91 338.64 469.48 C 333.43 464.05 331.15 460.16 330.78 464.42 C 330.25 470.58 335.72 479.64 341.03 483.03 C 345.55 485.9 350.63 487.21 349.15 491.86 C 347.67 496.51 349.15 493.86 344.04 498.86 C 338.93 503.86 337.98 505.53 338.34 512.49 C 338.7 519.45 336.88 519.89 335.78 525.7 C 334.68 531.51 332.16 526.48 329.96 535 M 450.12 490.52 C 453.89 490.22 459.53 495.44 457.32 497.44 C 455.11 499.44 449.47 498.69 446.65 496.44 C 443.83 494.19 448.43 490.62 450.12 490.49 M 445.37 487.04 C 444.16 486.59 443.1 485.44 442.19 482.69 C 441.28 479.94 443.59 478.38 445.85 479.49 C 448.11 480.6 451.12 484.09 451.12 485.92 C 451.12 487.75 446.6 487.53 445.37 487.04 M 396 486.86 C 393.78 488.86 388.12 488.1 385.29 485.86 C 382.46 483.62 387.09 480.04 388.77 479.91 C 392.54 479.58 398.19 484.85 396 486.84 M 350.2 509 C 348.66 511.52 344.42 530.34 341.6 528.14 C 338.78 525.94 342.77 506.31 343.6 504.82 C 348.03 496.71 357.6 497.12 350.21 509 M 365.33 582 C 354.68 581.981 344.087 580.446 333.87 577.44 C 332.229 576.136 331.674 573.888 332.52 571.97 C 336 562.97 346.32 559.42 354.47 558.65 C 372.62 556.9 396.47 570.49 400.27 568.31 C 404.07 566.13 411.76 556.16 423.03 556.59 C 430.71 556.9 430.65 558.19 433.23 559.16 C 413.721 574.034 389.852 582.062 365.32 582 M 444.32 549.51 C 443.111 549.19 441.936 548.755 440.81 548.21 C 434.7 545.09 435.43 550.06 432.42 548.96 C 429.41 547.86 435.83 540.87 426.79 546.76 C 417.75 552.65 420.23 545.84 416.32 535.87 C 412.41 525.9 420.87 514.55 428 512 C 437.73 508.49 443.77 507.78 448.33 506.66 C 461.79 503.32 464.64 495.34 467.08 500.2 C 467.54 501.11 467.98 501.98 468.38 502.79 C 469.471 505.072 470.057 507.561 470.1 510.09 C 464.421 524.918 455.654 538.369 444.38 549.55 M 475.13 493.07 C 472.13 492.24 459.58 474.85 469.53 463.42 C 471.19 461.54 466.21 456.01 467.53 455.9 C 472.97 455.48 475.86 458.9 477.28 463.73 C 477.38 465.87 477.47 468.03 477.46 470.22 C 477.447 477.897 476.653 485.553 475.09 493.07"/>
  </g>
</svg>