<?xml version="1.0" encoding="utf-8"?>
<svg viewBox="0 0 720 720" xmlns="http://www.w3.org/2000/svg">
  <defs>
    <style>.cls-2{fill:#fff}</style>
  </defs>
  <path fill="#a21942" d="M-1.08-1.08h722.16v722.16H-1.08z" id="goal_background" data-name="goal background"/>
  <g id="ENG_text_graphics" data-name="ENG text &amp; graphics" transform="matrix(1, 0, 0, 1, -47.839996, 1.174988)">
    <g>
      <g>
        <g>
          <path class="cls-2" d="M 186.22 68.71 L 177.84 68.71 L 177.84 61.63 L 204 61.63 L 204 68.71 L 195.81 68.71 L 195.81 114.28 L 186.19 114.28 L 186.22 68.71 Z M 207.15 61.63 L 219.83 61.63 C 230.36 61.63 236.34 65.01 236.34 75.63 C 236.34 81.94 234.78 86.36 229.84 88.37 L 237.18 114.31 L 227.56 114.31 L 221.26 90.19 L 216.71 90.19 L 216.71 114.31 L 207.15 114.31 L 207.15 61.63 Z M 219.76 84.18 C 225.29 84.18 227.3 81.78 227.3 76.12 C 227.3 70.79 225.81 68.19 220.3 68.19 L 216.73 68.19 L 216.73 84.19 L 219.76 84.18 Z M 249.79 61.63 L 260.06 61.63 L 270.59 114.28 L 261.69 114.28 L 259.61 102.12 L 250.44 102.12 L 248.3 114.28 L 239.3 114.28 L 249.79 61.63 Z M 258.57 96 L 255 73.91 L 251.42 96 L 258.57 96 Z M 274.17 61.63 L 287.17 61.63 C 296.4 61.63 302.57 64.75 302.57 75.15 C 302.57 81.58 299.91 85.15 294.97 85.94 C 301.14 87.11 304.07 91.53 304.07 98.94 C 304.07 109.01 299.13 114.28 289.38 114.28 L 274.17 114.28 L 274.17 61.63 Z M 287 83.14 C 292.72 83.14 294.21 80.61 294.21 75.28 C 294.21 69.69 291.48 68.28 285.63 68.28 L 283.68 68.28 L 283.68 83.14 L 287 83.14 Z M 287.39 107.52 C 293.24 107.52 294.86 104.79 294.86 98.87 C 294.86 92.63 292.78 89.77 287.06 89.77 L 283.68 89.77 L 283.68 107.52 L 287.39 107.52 Z M 316.48 61.63 L 326.75 61.63 L 337.28 114.28 L 328.38 114.28 L 326.3 102.12 L 317.13 102.12 L 315 114.28 L 306 114.28 L 316.48 61.63 Z M 325.26 96 L 321.68 73.9 L 318.11 96 L 325.26 96 Z M 340.86 61.63 L 350.41 61.63 L 350.41 107.71 L 363.22 107.71 L 363.22 114.28 L 340.86 114.28 L 340.86 61.63 Z M 366.66 61.63 L 376.22 61.63 L 376.22 83.63 L 386.94 83.63 L 386.94 61.63 L 396.56 61.63 L 396.56 114.28 L 386.94 114.28 L 386.94 90.49 L 376.22 90.49 L 376.22 114.28 L 366.66 114.28 L 366.66 61.63 Z M 402.08 97.77 L 402.08 78 C 402.08 67.34 405.98 61 417.3 61 C 428.62 61 432.44 67.31 432.44 78 L 432.44 97.77 C 432.44 108.36 428.54 114.99 417.3 114.99 C 406.06 114.99 402.08 108.43 402.08 97.77 Z M 422.69 100 L 422.69 75.8 C 422.69 71.38 421.98 68.06 417.3 68.06 C 412.62 68.06 411.84 71.38 411.84 75.8 L 411.84 100 C 411.84 104.36 412.55 107.87 417.3 107.87 C 422.05 107.87 422.69 104.4 422.69 100 Z M 451.94 61.63 L 464.35 61.63 C 477.16 61.63 481.06 66.76 481.06 78.01 L 481.06 97.18 C 481.06 108.75 477.06 114.28 464.74 114.28 L 451.94 114.28 L 451.94 61.63 Z M 464.48 107.58 C 471.05 107.58 471.31 104.07 471.31 97.51 L 471.31 77.36 C 471.31 71.05 470.66 68.45 464.31 68.45 L 461.45 68.45 L 461.45 107.58 L 464.48 107.58 Z M 486.45 61.63 L 508.55 61.63 L 508.55 68.39 L 496 68.39 L 496 83.53 L 505.88 83.53 L 505.88 90.23 L 496 90.23 L 496 107.71 L 508.67 107.71 L 508.67 114.28 L 486.45 114.28 L 486.45 61.63 Z M 511.74 97.44 L 511.74 78.66 C 511.74 67.87 515.18 61.04 526.74 61.04 C 537.54 61 541 67 541 76.19 L 541 80.61 L 531.77 80.61 L 531.77 76.06 C 531.77 71.64 531.7 68.06 526.83 68.06 C 521.96 68.06 521.43 71.83 521.43 76.64 L 521.43 99.46 C 521.43 105.18 522.6 107.91 526.83 107.91 C 531.57 107.91 531.77 104.2 531.77 99.52 L 531.77 94.78 L 541 94.78 L 541 99 C 541 108.3 537.88 115 526.76 115 C 515.18 115 511.74 107.71 511.74 97.44 Z M 546 61.63 L 568.1 61.63 L 568.1 68.39 L 555.55 68.39 L 555.55 83.53 L 565.43 83.53 L 565.43 90.23 L 555.55 90.23 L 555.55 107.71 L 568.22 107.71 L 568.22 114.28 L 546 114.28 L 546 61.63 Z M 572.12 61.63 L 578.82 61.63 L 591.62 91.63 L 591.62 61.63 L 599.55 61.63 L 599.55 114.28 L 593.18 114.28 L 580.31 82.82 L 580.31 114.28 L 572.12 114.28 L 572.12 61.63 Z M 611.12 68.71 L 602.74 68.71 L 602.74 61.63 L 628.93 61.63 L 628.93 68.71 L 620.74 68.71 L 620.74 114.28 L 611.12 114.28 L 611.12 68.71 Z M 632.05 61.63 L 654.15 61.63 L 654.15 68.39 L 641.61 68.39 L 641.61 83.53 L 651.49 83.53 L 651.49 90.23 L 641.61 90.23 L 641.61 107.71 L 654.28 107.71 L 654.28 114.28 L 632.05 114.28 L 632.05 61.63 Z M 181 147.63 L 203.1 147.63 L 203.1 154.39 L 190.51 154.39 L 190.51 169.53 L 200.39 169.53 L 200.39 176.23 L 190.51 176.23 L 190.51 193.71 L 203.19 193.71 L 203.19 200.28 L 181 200.28 L 181 147.63 Z M 220.35 183.44 L 220.35 164.66 C 220.35 153.87 223.79 147.04 235.35 147.04 C 246.14 147.04 249.59 153.04 249.59 162.19 L 249.59 166.61 L 240.36 166.61 L 240.36 162.06 C 240.36 157.64 240.29 154.06 235.42 154.06 C 230.55 154.06 230.02 157.83 230.02 162.64 L 230.02 185.46 C 230.02 191.18 231.19 193.91 235.42 193.91 C 240.16 193.91 240.36 190.2 240.36 185.52 L 240.36 180.78 L 249.59 180.78 L 249.59 185 C 249.59 194.3 246.47 201 235.35 201 C 223.79 201 220.35 193.71 220.35 183.44 Z M 254.6 147.63 L 267.28 147.63 C 277.81 147.63 283.79 151.01 283.79 161.63 C 283.79 167.94 282.23 172.36 277.29 174.37 L 284.63 200.31 L 275 200.31 L 268.7 176.19 L 264.15 176.19 L 264.15 200.31 L 254.6 200.31 L 254.6 147.63 Z M 267.21 170.18 C 272.74 170.18 274.75 167.78 274.75 162.12 C 274.75 156.79 273.26 154.19 267.75 154.19 L 264.18 154.19 L 264.18 170.19 L 267.21 170.18 Z M 289.38 147.63 L 311.48 147.63 L 311.48 154.39 L 298.93 154.39 L 298.93 169.53 L 308.81 169.53 L 308.81 176.23 L 298.93 176.23 L 298.93 193.71 L 311.61 193.71 L 311.61 200.28 L 289.38 200.28 L 289.38 147.63 Z M 314.21 184.94 L 322.46 183.31 C 322.72 189.55 324.22 193.58 328.46 193.58 C 331.52 193.58 332.82 191.5 332.82 188.64 C 332.82 184.09 330.48 181.56 327.03 178.57 L 320.4 172.78 C 316.63 169.53 314.29 165.89 314.29 160.04 C 314.29 151.72 319.49 147.04 327.88 147.04 C 337.76 147.04 340.55 153.67 341.07 161.34 L 332.82 162.77 C 332.62 157.83 331.91 154.13 327.68 154.13 C 324.82 154.13 323.26 156.27 323.26 159.07 C 323.26 162.64 324.76 164.59 327.55 167 L 334.12 172.78 C 338.41 176.49 341.98 181.1 341.98 188.06 C 341.98 195.66 336.65 200.99 328.79 200.99 C 319.15 201 314.6 195.4 314.21 184.94 Z M 345.08 183.44 L 345.08 164.66 C 345.08 153.87 348.53 147.04 360.08 147.04 C 370.87 147.04 374.31 153.04 374.31 162.19 L 374.31 166.61 L 365.1 166.61 L 365.1 162.06 C 365.1 157.64 365.04 154.06 360.16 154.06 C 355.28 154.06 354.77 157.83 354.77 162.64 L 354.77 185.46 C 354.77 191.18 355.94 193.91 360.16 193.91 C 364.91 193.91 365.1 190.2 365.1 185.52 L 365.1 180.78 L 374.33 180.78 L 374.33 185 C 374.33 194.3 371.21 201 360.1 201 C 348.53 201 345.08 193.71 345.08 183.44 Z M 379.6 147.63 L 389.09 147.63 L 389.09 200.28 L 379.6 200.28 L 379.6 147.63 Z M 396.3 147.63 L 406.24 147.63 L 413.72 184.09 L 421.46 147.63 L 431.14 147.63 L 432.14 200.28 L 425 200.28 L 424.22 163.68 L 416.74 200.28 L 410.96 200.28 L 403.35 163.55 L 402.63 200.28 L 395.42 200.28 L 396.3 147.63 Z M 438.22 147.63 L 460.33 147.63 L 460.33 154.39 L 447.78 154.39 L 447.78 169.53 L 457.66 169.53 L 457.66 176.23 L 447.78 176.23 L 447.78 193.71 L 460.46 193.71 L 460.46 200.28 L 438.22 200.28 L 438.22 147.63 Z M 464.35 147.63 L 471.05 147.63 L 483.85 177.63 L 483.85 147.63 L 491.78 147.63 L 491.78 200.28 L 485.41 200.28 L 472.54 168.82 L 472.54 200.28 L 464.35 200.28 L 464.35 147.63 Z M 503.35 154.71 L 495 154.71 L 495 147.63 L 521.19 147.63 L 521.19 154.71 L 513 154.71 L 513 200.28 L 503.38 200.28 L 503.35 154.71 Z M 523.18 183.77 L 523.18 164 C 523.18 153.34 527.08 147 538.39 147 C 549.7 147 553.53 153.31 553.53 164 L 553.53 183.76 C 553.53 194.35 549.63 200.98 538.39 200.98 C 527.15 200.98 523.18 194.43 523.18 183.77 Z M 543.78 186.04 L 543.78 161.8 C 543.78 157.38 543.07 154.06 538.39 154.06 C 533.71 154.06 532.93 157.38 532.93 161.8 L 532.93 186 C 532.93 190.36 533.64 193.87 538.39 193.87 C 543.14 193.87 543.78 190.4 543.78 186 L 543.78 186.04 Z M 181 233.63 L 203.1 233.63 L 203.1 240.39 L 190.51 240.39 L 190.51 255.53 L 200.39 255.53 L 200.39 262.23 L 190.51 262.23 L 190.51 279.71 L 203.19 279.71 L 203.19 286.28 L 181 286.28 L 181 233.63 Z M 206.24 269.44 L 206.24 250.66 C 206.24 239.87 209.69 233.04 221.24 233.04 C 232.03 233.04 235.47 239.04 235.47 248.19 L 235.47 252.61 L 226.24 252.61 L 226.24 248.06 C 226.24 243.64 226.18 240.06 221.3 240.06 C 216.42 240.06 215.91 243.83 215.91 248.64 L 215.91 271.46 C 215.91 277.18 217.08 279.91 221.3 279.91 C 226.05 279.91 226.24 276.2 226.24 271.52 L 226.24 266.78 L 235.47 266.78 L 235.47 271 C 235.47 280.3 232.35 287 221.24 287 C 209.69 287 206.24 279.71 206.24 269.44 Z M 239.65 269.77 L 239.65 250 C 239.65 239.34 243.55 233 254.86 233 C 266.17 233 270 239.35 270 250 L 270 269.76 C 270 280.35 266.1 286.98 254.85 286.98 C 243.6 286.98 239.65 280.43 239.65 269.77 Z M 260.26 272 L 260.26 247.8 C 260.26 243.38 259.54 240.06 254.86 240.06 C 250.18 240.06 249.4 243.38 249.4 247.8 L 249.4 272 C 249.4 276.36 250.12 279.87 254.86 279.87 C 259.6 279.87 260.26 276.4 260.26 272 Z M 275.4 233.63 L 282.1 233.63 L 294.9 263.63 L 294.9 233.63 L 302.83 233.63 L 302.83 286.28 L 296.46 286.28 L 283.59 254.82 L 283.59 286.28 L 275.4 286.28 L 275.4 233.63 Z M 308.29 269.77 L 308.29 250 C 308.29 239.34 312.19 233 323.5 233 C 334.81 233 338.65 239.31 338.65 250 L 338.65 269.76 C 338.65 280.35 334.75 286.98 323.5 286.98 C 312.25 286.98 308.29 280.43 308.29 269.77 Z M 319.47 217.51 L 327.4 217.51 L 333.4 229.51 L 326.84 229.51 L 323.46 221.71 L 320.14 229.51 L 313.64 229.51 L 319.47 217.51 Z M 328.9 272 L 328.9 247.8 C 328.9 243.38 328.18 240.06 323.5 240.06 C 318.82 240.06 318 243.38 318 247.8 L 318 272 C 318 276.36 318.72 279.87 323.46 279.87 C 328.2 279.87 328.9 276.4 328.9 272 Z M 344.82 233.63 L 354.77 233.63 L 362.24 270.09 L 370 233.63 L 379.68 233.63 L 380.68 286.28 L 373.53 286.28 L 372.75 249.68 L 365.27 286.28 L 359.49 286.28 L 351.88 249.55 L 351.17 286.28 L 343.95 286.28 L 344.82 233.63 Z M 387 233.63 L 396.49 233.63 L 396.49 286.28 L 387 286.28 L 387 233.63 Z M 402.09 269.44 L 402.09 250.66 C 402.09 239.87 405.53 233.04 417.09 233.04 C 427.88 233.04 431.33 239.04 431.33 248.19 L 431.33 252.61 L 422.1 252.61 L 422.1 248.06 C 422.1 243.64 422.03 240.06 417.16 240.06 C 412.29 240.06 411.76 243.83 411.76 248.64 L 411.76 271.46 C 411.76 277.18 412.93 279.91 417.16 279.91 C 421.9 279.91 422.1 276.2 422.1 271.52 L 422.1 266.78 L 431.33 266.78 L 431.33 271 C 431.33 280.3 428.21 287 417.09 287 C 405.53 287 402.09 279.71 402.09 269.44 Z M 435.5 269.77 L 435.5 250 C 435.5 239.34 439.4 233 450.71 233 C 462.02 233 465.85 239.31 465.85 250 L 465.85 269.76 C 465.85 280.35 461.95 286.98 450.71 286.98 C 439.47 286.98 435.5 280.43 435.5 269.77 Z M 456.1 272 L 456.1 247.8 C 456.1 243.38 455.39 240.06 450.71 240.06 C 446.03 240.06 445.25 243.38 445.25 247.8 L 445.25 272 C 445.25 276.36 445.96 279.87 450.71 279.87 C 455.46 279.87 456.1 276.4 456.1 272 Z M 495.49 377.11 L 422.26 446.78 C 419.49 449.53 418.08 451.55 418.08 457.24 L 418.08 652.49 C 418.086 654.793 419.957 656.656 422.26 656.65 L 497.9 656.65 C 500.199 656.65 502.064 654.789 502.07 652.49 L 502.07 378.87 C 502.07 376.57 500.27 372.36 495.49 377.11 M 284.52 467.88 L 211.27 537.53 C 208.52 540.29 207.1 542.31 207.1 547.98 L 207.1 652.49 C 207.111 654.787 208.973 656.645 211.27 656.65 L 286.92 656.65 C 289.221 656.65 291.089 654.791 291.1 652.49 L 291.1 469.62 C 291.1 467.32 289.28 463.1 284.52 467.88"/>
        </g>
      </g>
    </g>
    <g>
      <g>
        <path class="cls-2" d="M 528.78 292.63 C 528.804 292.038 528.575 291.464 528.15 291.05 C 527.785 290.696 527.307 290.483 526.8 290.45 L 525.8 290.45 L 469.72 303.1 L 468.72 303.21 C 468.311 303.296 467.934 303.493 467.63 303.78 C 466.812 304.613 466.812 305.947 467.63 306.78 L 468.26 307.41 L 481.07 320.21 L 354 447.36 L 295.3 388.67 C 294.645 387.999 293.565 387.999 292.91 388.67 L 277 404.59 L 182.9 498.67 C 182.251 499.334 182.251 500.396 182.9 501.06 L 198.85 517 C 199.503 517.658 200.567 517.658 201.22 517 L 294.12 424.12 L 336.71 466.71 C 336.745 466.782 336.789 466.849 336.84 466.91 L 352.77 482.82 C 353.425 483.491 354.505 483.491 355.16 482.82 L 499.37 338.61 L 512.82 352.05 C 513.968 353.199 515.929 352.675 516.351 351.106 C 516.389 350.964 516.412 350.817 516.42 350.67 L 516.42 350.49 L 528.73 293.25 L 528.78 292.63 Z"/>
        <path class="cls-2" d="M 390.42 480.1 L 355 515.83 C 354.33 516.39 353.344 516.351 352.72 515.74 L 320.6 483 C 314.72 477.14 313.46 481.89 313.46 484.19 L 313.46 652.48 C 313.449 654.776 315.304 656.644 317.6 656.65 L 393.27 656.65 C 395.567 656.639 397.425 654.777 397.43 652.48 L 397.43 481.42 C 397.43 479.12 395.62 474.9 390.43 480.1"/>
      </g>
    </g>
  </g>
</svg>