<?xml version="1.0" encoding="utf-8"?>
<svg viewBox="0 0 720 720" xmlns="http://www.w3.org/2000/svg">
  <defs>
    <style>.cls-2{fill:#fff}</style>
  </defs>
  <path fill="#56c02b" d="M-1.08-1.08h722.16v722.16H-1.08z" id="goal_background" data-name="goal background"/>
  <g id="ENG_text_graphics" data-name="ENG text &amp; graphics" transform="matrix(1, 0, 0, 1, 3.690018, 12.149998)">
    <path class="cls-2" d="M 226.92 61.63 L 235.37 61.63 L 242.37 98.87 L 248.93 61.63 L 257.58 61.63 L 246.98 114.28 L 237.56 114.28 L 226.92 61.63 Z M 261.24 61.63 L 270.73 61.63 L 270.73 114.28 L 261.24 114.28 L 261.24 61.63 Z M 276.91 61.63 L 289.32 61.63 C 302.13 61.63 306 66.76 306 78 L 306 97.18 C 306 108.75 302 114.28 289.68 114.28 L 276.88 114.28 L 276.91 61.63 Z M 289.45 107.58 C 296.02 107.58 296.28 104.07 296.28 97.51 L 296.28 77.36 C 296.28 71.05 295.63 68.45 289.28 68.45 L 286.42 68.45 L 286.42 107.58 L 289.45 107.58 Z M 318.64 61.63 L 328.91 61.63 L 339.44 114.28 L 330.53 114.28 L 328.45 102.12 L 319.29 102.12 L 317.14 114.28 L 308.14 114.28 L 318.64 61.63 Z M 327.41 96 L 323.84 73.9 L 320.26 96 L 327.41 96 Z M 234.66 154.71 L 226.27 154.71 L 226.27 147.63 L 252.47 147.63 L 252.47 154.71 L 244.28 154.71 L 244.28 200.28 L 234.66 200.28 L 234.66 154.71 Z M 255.33 147.63 L 277.43 147.63 L 277.43 154.39 L 264.88 154.39 L 264.88 169.53 L 274.76 169.53 L 274.76 176.23 L 264.88 176.23 L 264.88 193.71 L 277.56 193.71 L 277.56 200.28 L 255.33 200.28 L 255.33 147.63 Z M 281.19 147.63 L 293.87 147.63 C 304.4 147.63 310.38 151.01 310.38 161.63 C 310.38 167.94 308.82 172.36 303.88 174.37 L 311.23 200.31 L 301.61 200.31 L 295.3 176.19 L 290.75 176.19 L 290.75 200.31 L 281.19 200.31 L 281.19 147.63 Z M 293.81 170.18 C 299.33 170.18 301.35 167.78 301.35 162.12 C 301.35 156.79 299.85 154.19 294.35 154.19 L 290.77 154.19 L 290.77 170.19 L 293.81 170.18 Z M 315.71 147.63 L 328.38 147.63 C 338.91 147.63 344.9 151.01 344.9 161.63 C 344.9 167.94 343.34 172.36 338.39 174.37 L 345.74 200.31 L 336.12 200.31 L 329.81 176.19 L 325.26 176.19 L 325.26 200.31 L 315.71 200.31 L 315.71 147.63 Z M 328.32 170.18 C 333.84 170.18 335.86 167.78 335.86 162.12 C 335.86 156.79 334.36 154.19 328.86 154.19 L 325.28 154.19 L 325.28 170.19 L 328.32 170.18 Z M 350.22 147.63 L 372.32 147.63 L 372.32 154.39 L 359.78 154.39 L 359.78 169.53 L 369.66 169.53 L 369.66 176.23 L 359.78 176.23 L 359.78 193.71 L 372.45 193.71 L 372.45 200.28 L 350.22 200.28 L 350.22 147.63 Z M 374.79 184.94 L 383.05 183.31 C 383.31 189.55 384.8 193.58 389.05 193.58 C 392.1 193.58 393.4 191.5 393.4 188.64 C 393.4 184.09 391.06 181.56 387.62 178.57 L 381 172.78 C 377.23 169.53 374.89 165.89 374.89 160.04 C 374.89 151.72 380.09 147.04 388.47 147.04 C 398.35 147.04 401.15 153.67 401.67 161.34 L 393.41 162.77 C 393.22 157.83 392.5 154.13 388.28 154.13 C 385.42 154.13 383.86 156.27 383.86 159.07 C 383.86 162.64 385.35 164.59 388.15 167 L 394.71 172.78 C 399 176.49 402.58 181.1 402.58 188.06 C 402.58 195.66 397.25 200.99 389.38 200.99 C 379.73 201 375.18 195.4 374.79 184.94 L 374.79 184.94 Z M 411.52 154.71 L 403.13 154.71 L 403.13 147.63 L 429.33 147.63 L 429.33 154.71 L 421.14 154.71 L 421.14 200.28 L 411.52 200.28 L 411.52 154.71 Z M 432.19 147.63 L 444.86 147.63 C 455.39 147.63 461.37 151.01 461.37 161.63 C 461.37 167.94 459.81 172.36 454.87 174.37 L 462.22 200.31 L 452.6 200.31 L 446.29 176.19 L 441.74 176.19 L 441.74 200.31 L 432.19 200.31 L 432.19 147.63 Z M 444.8 170.18 C 450.32 170.18 452.34 167.78 452.34 162.12 C 452.34 156.79 450.84 154.19 445.34 154.19 L 441.76 154.19 L 441.76 170.19 L 444.8 170.18 Z M 466.7 147.63 L 488.8 147.63 L 488.8 154.39 L 476.26 154.39 L 476.26 169.53 L 486.14 169.53 L 486.14 176.23 L 476.26 176.23 L 476.26 193.71 L 488.93 193.71 L 488.93 200.28 L 466.7 200.28 L 466.7 147.63 Z M 297.69 487.78 C 298.57 487.785 299.28 488.5 299.28 489.38 L 299.28 542.21 C 299.291 543.094 298.574 543.816 297.69 543.81 L 276.31 543.81 C 275.42 543.821 274.694 543.1 274.7 542.21 L 274.7 489.38 C 274.705 488.495 275.425 487.78 276.31 487.78 L 297.69 487.78 Z M 532.45 566.5 L 180.16 566.5 C 179.262 566.516 178.544 567.252 178.55 568.15 L 178.55 589.68 C 178.556 590.564 179.276 591.276 180.16 591.27 L 532.45 591.27 C 533.333 591.27 534.054 590.563 534.07 589.68 L 534.07 568.15 C 534.065 567.252 533.347 566.522 532.45 566.5 M 532.45 609.29 L 180.16 609.29 C 179.276 609.284 178.556 609.996 178.55 610.88 L 178.55 632.48 C 178.566 633.359 179.281 634.065 180.16 634.07 L 532.45 634.07 C 533.331 634.065 534.048 633.361 534.07 632.48 L 534.07 610.88 C 534.054 609.997 533.333 609.29 532.45 609.29 M 465.42 429.3 C 461.01 425.86 449.27 417.82 434.94 417.82 C 424.7 417.82 415.17 421.82 406.65 429.82 C 406.043 430.394 405.702 431.195 405.71 432.03 L 405.71 434 C 405.668 434.912 406.035 435.795 406.71 436.41 C 407.401 436.98 408.32 437.192 409.19 436.98 C 409.418 436.95 409.643 436.897 409.86 436.82 C 410.522 436.581 411.123 436.199 411.62 435.7 C 413.46 434.46 418.51 432.76 425.73 432.76 C 433.19 432.76 447.85 434.76 462.03 447.98 L 462.35 448.27 C 463.159 449.091 464.267 449.55 465.42 449.54 C 466.546 449.549 467.629 449.102 468.42 448.3 L 468.7 448 C 482.95 434.76 497.59 432.76 505.05 432.76 C 512.32 432.76 517.35 434.46 519.2 435.7 C 519.767 436.244 520.451 436.651 521.2 436.89 C 521.871 437.078 522.578 437.102 523.26 436.96 C 524.575 436.606 525.486 435.411 525.48 434.05 L 525.48 432.35 C 525.47 431.525 525.128 430.739 524.53 430.17 C 515.93 421.97 506.3 417.83 495.9 417.83 C 481.7 417.83 470.01 425.74 465.49 429.33 M 443.55 288.89 C 442.794 289.259 442.236 289.938 442.02 290.75 L 441.66 291.92 C 441.387 292.826 441.557 293.809 442.12 294.57 C 442.635 295.268 443.434 295.7 444.3 295.75 C 444.445 295.779 444.595 295.779 444.74 295.75 C 445.335 295.738 445.92 295.591 446.45 295.32 C 447.147 295.15 447.863 295.069 448.58 295.08 C 450.16 295.08 464.36 295.56 473.75 311.52 L 473.87 311.75 C 474.338 312.636 475.153 313.288 476.12 313.55 C 476.488 313.654 476.868 313.711 477.25 313.72 C 477.868 313.724 478.476 313.573 479.02 313.28 L 479.25 313.17 C 484.126 310.668 489.52 309.343 495 309.3 C 503.9 309.3 509.71 312.93 511.07 314.45 C 511.36 314.967 511.759 315.414 512.24 315.76 C 512.609 315.971 512.994 316.155 513.39 316.31 C 513.561 316.348 513.735 316.375 513.91 316.39 C 514.016 316.4 514.124 316.4 514.23 316.39 C 515.562 316.378 516.731 315.504 517.12 314.23 L 517.41 313.23 C 517.5 312.956 517.544 312.669 517.54 312.38 C 517.547 311.845 517.405 311.319 517.13 310.86 C 510.29 298.98 500.36 296.5 493.23 296.5 C 488.898 296.558 484.608 297.363 480.55 298.88 C 477.32 294.54 469.17 285.57 456.79 285.57 C 452.185 285.628 447.659 286.773 443.58 288.91 M 369.11 343.09 L 369.22 344.67 C 369.26 345.647 369.785 346.54 370.62 347.05 C 371.326 347.494 372.184 347.625 372.99 347.41 C 373.16 347.41 373.36 347.3 373.51 347.25 C 374.102 347.004 374.624 346.616 375.03 346.12 C 376.53 345.04 381.35 343.07 388.47 343.07 C 395.31 343.07 405.72 344.9 416.32 353.61 L 416.57 353.86 C 417.329 354.506 418.293 354.861 419.29 354.86 L 419.55 354.86 C 420.608 354.794 421.599 354.317 422.31 353.53 L 422.55 353.27 C 434.29 340.86 446.94 339 453.43 339 C 458.06 339 461.34 340 462.62 340.68 C 463.148 341.135 463.774 341.46 464.45 341.63 C 464.872 341.73 465.308 341.76 465.74 341.72 C 465.991 341.679 466.238 341.619 466.48 341.54 C 467.74 341.097 468.556 339.874 468.48 338.54 L 468.4 337.16 C 468.345 336.348 467.962 335.594 467.34 335.07 C 460.34 329.17 452.76 326.2 444.8 326.2 C 432.41 326.2 422.53 333.52 418.43 337.11 C 414.68 334.56 405.59 329.31 394.93 329.31 C 385.55 329.31 377.15 333.2 369.93 340.86 C 369.366 341.47 369.071 342.28 369.11 343.11 M 190.84 371.37 C 190.84 350.29 207.92 333.197 229 333.18 C 229.83 333.18 230.63 333.25 231.45 333.3 C 234.368 293.647 279.118 272.023 311.999 294.377 C 333.236 308.815 340.641 336.661 329.38 359.74 C 372.766 369.364 389.464 422.346 359.436 455.107 C 348.495 467.044 333.043 473.838 316.85 473.83 C 314.52 473.83 239.78 473.38 239.78 473.38 C 208.334 473.406 188.652 439.38 204.353 412.134 C 205.944 409.373 207.853 406.807 210.04 404.49 C 198.16 397.696 190.833 385.056 190.84 371.37 L 190.84 371.37 Z"/>
  </g>
</svg>