<?xml version="1.0" encoding="utf-8"?>
<svg viewBox="0 0 720 720" xmlns="http://www.w3.org/2000/svg">
  <defs>
    <style>.cls-2{fill:#fff}</style>
  </defs>
  <path fill="#26bde2" d="M -1.08 -1.08 L 721.08 -1.08 L 721.08 721.08 L -1.08 721.08 L -1.08 -1.08 Z" id="goal_background" data-name="goal background"/>
  <g id="ENG_text_graphics" data-name="ENG text &amp; graphics" transform="matrix(1, 0, 0, 1, -11.529984, 7.589996)">
    <path class="cls-2" d="M 196.83 61.63 L 207.1 61.63 L 217.63 114.28 L 208.73 114.28 L 206.64 102.12 L 197.48 102.12 L 195.33 114.28 L 186.33 114.28 L 196.83 61.63 Z M 205.6 96 L 202 73.91 L 198.45 96 L 205.6 96 Z M 203.26 45 L 212.26 45 L 204.5 58 L 199.36 58 L 203.26 45 Z M 221.2 96.92 L 221.2 79.24 C 221.2 67.93 224.65 61.04 236.2 61.04 C 246.99 61.04 250.76 66.63 250.76 76.38 L 250.76 79.11 L 241.59 79.11 L 241.59 76.11 C 241.59 71.04 241.07 68.05 236.33 68.05 C 231.26 68.05 230.87 72.15 230.87 76.96 L 230.87 99 C 230.87 104.46 231.87 107.91 236.59 107.91 C 241.31 107.91 242.37 104.27 242.37 98.55 L 242.37 93.61 L 236.72 93.61 L 236.72 87.61 L 251 87.61 L 251 114.33 L 244.8 114.33 L 244.15 109.19 C 242.72 112.57 240.15 115.04 235.24 115.04 C 224.84 115 221.2 108 221.2 96.92 Z M 257.67 97.25 L 257.67 61.63 L 267 61.63 L 267 98.35 C 267 103.35 267.58 107.84 272.46 107.84 C 277.34 107.84 277.98 103.36 277.98 98.35 L 277.98 61.63 L 287.28 61.63 L 287.28 97.25 C 287.28 108.25 284.22 114.99 272.46 114.99 C 260.7 114.99 257.67 108.3 257.67 97.25 Z M 302.13 61.63 L 312.4 61.63 L 322.93 114.28 L 314 114.28 L 311.92 102.12 L 302.76 102.12 L 300.61 114.28 L 291.61 114.28 L 302.13 61.63 Z M 310.9 96 L 307.33 73.9 L 303.75 96 L 310.9 96 Z M 343.34 61.63 L 358.81 61.63 C 368.23 61.63 372.26 67.09 372.26 76.58 C 372.26 86.91 366.67 90.88 358.16 90.88 L 352.89 90.88 L 352.89 114.28 L 343.34 114.28 L 343.34 61.63 Z M 356.6 84.12 C 361.86 84.12 363.23 82.12 363.23 76.51 C 363.23 70.9 362.51 68.39 356.6 68.39 L 352.89 68.39 L 352.89 84.12 L 356.6 84.12 Z M 376.42 97.77 L 376.42 78 C 376.42 67.34 380.32 61 391.63 61 C 402.94 61 406.78 67.31 406.78 78 L 406.78 97.77 C 406.78 108.36 402.88 114.99 391.63 114.99 C 380.38 114.99 376.42 108.43 376.42 97.77 Z M 397 100 L 397 75.8 C 397 71.38 396.28 68.06 391.6 68.06 C 386.92 68.06 386.14 71.38 386.14 75.8 L 386.14 100 C 386.14 104.36 386.86 107.87 391.6 107.87 C 396.34 107.87 397 104.4 397 100 Z M 418.54 68.71 L 410.16 68.71 L 410.16 61.63 L 436.35 61.63 L 436.35 68.71 L 428.16 68.71 L 428.16 114.28 L 418.54 114.28 L 418.54 68.71 Z M 447.4 61.63 L 457.67 61.63 L 468.2 114.28 L 459.3 114.28 L 457.22 102.12 L 448.05 102.12 L 445.91 114.28 L 436.91 114.28 L 447.4 61.63 Z M 456.18 96 L 452.6 73.9 L 449 96 L 456.18 96 Z M 453.84 45 L 462.84 45 L 455.1 58 L 449.97 58 L 453.84 45 Z M 468.72 61.63 L 477.17 61.63 L 484.17 98.87 L 490.73 61.63 L 499.38 61.63 L 488.78 114.28 L 479.35 114.28 L 468.72 61.63 Z M 504.4 61.63 L 526.5 61.63 L 526.5 68.39 L 514 68.39 L 514 83.53 L 523.88 83.53 L 523.88 90.23 L 514 90.23 L 514 107.71 L 526.68 107.71 L 526.68 114.28 L 504.4 114.28 L 504.4 61.63 Z M 531.9 61.63 L 541.45 61.63 L 541.45 107.71 L 554.26 107.71 L 554.26 114.28 L 531.9 114.28 L 531.9 61.63 Z M 189 147.63 L 211.1 147.63 L 211.1 154.39 L 198.52 154.39 L 198.52 169.53 L 208.4 169.53 L 208.4 176.23 L 198.52 176.23 L 198.52 193.71 L 211.19 193.71 L 211.19 200.28 L 189 200.28 L 189 147.63 Z M 230.63 184.94 L 238.88 183.31 C 239.14 189.55 240.64 193.58 244.88 193.58 C 247.94 193.58 249.24 191.5 249.24 188.64 C 249.24 184.09 246.9 181.56 243.45 178.57 L 236.82 172.78 C 233.05 169.53 230.71 165.89 230.71 160.04 C 230.71 151.72 235.91 147.04 244.3 147.04 C 254.18 147.04 256.97 153.67 257.5 161.34 L 249.24 162.77 C 249.04 157.83 248.33 154.13 244.1 154.13 C 241.24 154.13 239.68 156.27 239.68 159.07 C 239.68 162.64 241.18 164.59 243.97 167 L 250.54 172.78 C 254.83 176.49 258.41 181.1 258.41 188.06 C 258.41 195.66 253.07 200.99 245.21 200.99 C 235.57 201 231 195.4 230.63 184.94 Z M 271.32 147.63 L 281.59 147.63 L 292.12 200.28 L 283.21 200.28 L 281.13 188.12 L 272 188.12 L 269.85 200.28 L 260.85 200.28 L 271.32 147.63 Z M 280.09 182 L 276.52 159.9 L 272.94 182 L 280.09 182 Z M 297.06 147.63 L 303.75 147.63 L 316.56 177.63 L 316.56 147.63 L 324.49 147.63 L 324.49 200.28 L 318.12 200.28 L 305.25 168.82 L 305.25 200.28 L 297.06 200.28 L 297.06 147.63 Z M 332.16 147.63 L 354.26 147.63 L 354.26 154.39 L 341.71 154.39 L 341.71 169.53 L 351.59 169.53 L 351.59 176.23 L 341.71 176.23 L 341.71 193.71 L 354.39 193.71 L 354.39 200.28 L 332.16 200.28 L 332.16 147.63 Z M 367.52 147.63 L 377.79 147.63 L 388.32 200.28 L 379.41 200.28 L 377.33 188.12 L 368.17 188.12 L 366 200.28 L 357 200.28 L 367.52 147.63 Z M 376.29 182 L 372.72 159.9 L 369.14 182 L 376.29 182 Z M 394 147.63 L 404 147.63 L 411.48 184.09 L 419.21 147.63 L 428.9 147.63 L 429.9 200.28 L 422.7 200.28 L 421.92 163.68 L 414.45 200.28 L 408.66 200.28 L 401.06 163.55 L 400.34 200.28 L 393.13 200.28 L 394 147.63 Z M 437.33 147.63 L 459.43 147.63 L 459.43 154.39 L 446.88 154.39 L 446.88 169.53 L 456.76 169.53 L 456.76 176.23 L 446.88 176.23 L 446.88 193.71 L 459.56 193.71 L 459.56 200.28 L 437.33 200.28 L 437.33 147.63 Z M 464.82 147.63 L 471.52 147.63 L 484.32 177.63 L 484.32 147.63 L 492.25 147.63 L 492.25 200.28 L 485.88 200.28 L 473 168.82 L 473 200.28 L 464.81 200.28 L 464.82 147.63 Z M 505.19 154.71 L 496.8 154.71 L 496.8 147.63 L 523 147.63 L 523 154.71 L 514.81 154.71 L 514.81 200.28 L 505.19 200.28 L 505.19 154.71 Z M 526.37 183.77 L 526.37 164 C 526.37 153.34 530.27 147 541.58 147 C 552.89 147 556.73 153.31 556.73 164 L 556.73 183.76 C 556.73 194.35 552.83 200.98 541.58 200.98 C 530.33 200.98 526.37 194.43 526.37 183.77 Z M 547 186 L 547 161.8 C 547 157.38 546.29 154.06 541.6 154.06 C 536.91 154.06 536.15 157.38 536.15 161.8 L 536.15 186 C 536.15 190.36 536.86 193.87 541.6 193.87 C 546.34 193.87 547 190.4 547 186 Z M 493.61 290.61 C 492.996 289.952 492.13 289.588 491.23 289.61 L 228 289.61 C 227.105 289.597 226.245 289.96 225.63 290.61 C 225.075 291.313 224.836 292.214 224.97 293.1 L 269.19 560.54 C 269.436 562.011 270.698 563.097 272.19 563.12 L 326.46 563.12 L 330.17 606.68 L 307.33 606.68 L 360.47 659.82 L 413.74 606.57 L 390.91 606.57 L 394.61 563.08 L 449.84 563.08 C 451.359 563.092 452.648 561.967 452.84 560.46 L 494.21 293.06 C 494.36 292.195 494.143 291.307 493.61 290.61 Z M 391.89 504.72 C 383.357 512.51 372.007 516.467 360.48 515.67 C 348.946 516.475 337.587 512.518 329.05 504.72 C 309.33 485.02 316.36 460.51 323.23 447.84 C 327.46 439.91 357.76 394.42 360.37 390.55 L 360.37 390.24 L 360.48 390.39 L 360.59 390.24 L 360.59 390.55 C 363.13 394.42 393.47 439.91 397.71 447.84 C 404.58 460.51 411.59 485 391.89 504.72 Z M 475.38 346.88 C 468.25 343.74 459.21 344.88 450.53 348.39 C 417.87 361.63 395.64 366.39 361.29 355.63 C 339.66 348.86 319.43 334.68 295.5 343.31 C 279.63 349.02 264.83 354.47 246.88 354.31 L 236.52 301.16 L 482.84 301.16 L 475.38 346.88 Z"/>
  </g>
</svg>