<?xml version="1.0" encoding="utf-8"?>
<svg viewBox="0 0 720 720" xmlns="http://www.w3.org/2000/svg">
  <defs>
    <style>.cls-2{fill:#fff}</style>
  </defs>
  <path fill="#fd6925" d="M-1.08-1.08h722.16v722.16H-1.08z" id="goal_background" data-name="goal background"/>
  <g id="ENG_text_graphics" data-name="ENG text &amp; graphics">
    <path class="cls-2" d="M 112.16 78.9 L 121.65 78.9 L 121.65 131.55 L 112.16 131.55 L 112.16 78.9 Z M 126.4 78.9 L 133.09 78.9 L 145.9 108.9 L 145.9 78.9 L 153.83 78.9 L 153.83 131.55 L 147.46 131.55 L 134.59 100.09 L 134.59 131.55 L 126.4 131.55 L 126.4 78.9 Z M 158.44 78.9 L 170.86 78.9 C 183.66 78.9 187.56 84.04 187.56 95.28 L 187.56 114.46 C 187.56 126.03 183.56 131.55 171.25 131.55 L 158.44 131.55 L 158.44 78.9 Z M 170.99 124.9 C 177.55 124.9 177.81 121.39 177.81 114.82 L 177.81 94.63 C 177.81 88.33 177.16 85.73 170.86 85.73 L 167.96 85.73 L 167.96 124.86 L 170.99 124.9 Z M 190.88 114.52 L 190.88 78.9 L 200.24 78.9 L 200.24 115.63 C 200.24 120.63 200.82 125.12 205.7 125.12 C 210.58 125.12 211.22 120.63 211.22 115.63 L 211.22 78.9 L 220.52 78.9 L 220.52 114.52 C 220.52 125.52 217.46 132.27 205.7 132.27 C 193.94 132.27 190.88 125.57 190.88 114.52 Z M 206.96 62.22 L 215.96 62.22 L 208.22 75.22 L 203.09 75.22 L 206.96 62.22 Z M 223.38 116.22 L 231.63 114.6 C 231.89 120.84 233.39 124.87 237.63 124.87 C 240.69 124.87 241.99 122.79 241.99 119.93 C 241.99 115.38 239.65 112.84 236.2 109.85 L 229.57 104.07 C 225.8 100.82 223.46 97.18 223.46 91.33 C 223.46 83.01 228.66 78.33 237.05 78.33 C 246.93 78.33 249.72 84.96 250.24 92.63 L 241.96 94.05 C 241.76 89.11 241.05 85.4 236.82 85.4 C 233.96 85.4 232.4 87.55 232.4 90.34 C 232.4 93.92 233.9 95.87 236.69 98.27 L 243.26 104.06 C 247.55 107.76 251.12 112.38 251.12 119.33 C 251.12 126.94 245.79 132.27 237.93 132.27 C 228.32 132.27 223.77 126.68 223.38 116.22 Z M 258.67 85.99 L 250.28 85.99 L 250.28 78.9 L 276.48 78.9 L 276.48 85.99 L 268.29 85.99 L 268.29 131.55 L 258.67 131.55 L 258.67 85.99 Z M 277.96 78.9 L 290.63 78.9 C 301.16 78.9 307.14 82.28 307.14 92.9 C 307.14 99.2 305.58 103.62 300.64 105.64 L 307.96 131.55 L 298.34 131.55 L 292.03 107.44 L 287.46 107.44 L 287.46 131.55 L 277.96 131.55 L 277.96 78.9 Z M 290.57 101.46 C 296.09 101.46 298.11 99.05 298.11 93.4 C 298.11 88.07 296.61 85.47 291.11 85.47 L 287.46 85.47 L 287.46 101.47 L 290.57 101.46 Z M 311.25 78.9 L 320.74 78.9 L 320.74 131.55 L 311.25 131.55 L 311.25 78.9 Z M 333.35 78.9 L 343.62 78.9 L 354.15 131.55 L 345.25 131.55 L 343.17 119.4 L 333.96 119.4 L 331.82 131.55 L 322.82 131.55 L 333.35 78.9 Z M 342.13 113.29 L 338.55 91.22 L 334.96 113.29 L 342.13 113.29 Z M 355.26 137.14 C 357.851 136.569 359.641 134.198 359.48 131.55 L 354.8 131.55 L 354.8 122.78 L 363.45 122.78 L 363.45 130.78 C 363.45 136.37 361.04 139.43 356.17 140.34 L 355.26 137.14 Z M 379.18 78.9 L 388.67 78.9 L 388.67 131.55 L 379.18 131.55 L 379.18 78.9 Z M 393.41 78.9 L 400.11 78.9 L 412.91 108.9 L 412.91 78.9 L 420.84 78.9 L 420.84 131.55 L 414.47 131.55 L 401.6 100.09 L 401.6 131.55 L 393.41 131.55 L 393.41 78.9 Z M 424.61 115.04 L 424.61 95.28 C 424.61 84.62 428.51 78.28 439.82 78.28 C 451.13 78.28 454.96 84.62 454.96 95.28 L 454.96 115.04 C 454.96 125.64 451.06 132.27 439.81 132.27 C 428.56 132.27 424.61 125.7 424.61 115.04 Z M 445.22 117.32 L 445.22 93.07 C 445.22 88.65 444.5 85.34 439.82 85.34 C 435.14 85.34 434.36 88.65 434.36 93.07 L 434.36 117.32 C 434.36 121.67 435.08 125.18 439.82 125.18 C 444.56 125.18 445.22 121.67 445.22 117.32 Z M 455.96 78.9 L 464.41 78.9 L 471.41 116.15 L 477.96 78.9 L 486.61 78.9 L 475.96 131.55 L 466.54 131.55 L 455.96 78.9 Z M 494.48 78.9 L 504.76 78.9 L 515.29 131.55 L 506.38 131.55 L 504.3 119.4 L 495.13 119.4 L 492.96 131.55 L 483.96 131.55 L 494.48 78.9 Z M 503.26 113.29 L 499.69 91.22 L 496.11 113.32 L 503.26 113.29 Z M 536.02 97.88 L 536.02 93.33 C 536.02 88.91 535.96 85.33 531.08 85.33 C 526.2 85.33 525.69 89.1 525.69 93.91 L 525.69 116.73 C 525.69 122.45 526.86 125.18 531.08 125.18 C 535.83 125.18 536.02 121.48 536.02 116.8 L 536.02 112.05 L 545.25 112.05 L 545.25 116.28 C 545.25 125.18 542.39 131.75 532.32 132.28 L 532.32 135.53 C 537.13 135.53 540.38 137.67 540.38 141.7 C 540.38 146.32 536.28 148.27 531.54 148.27 C 529.954 148.256 528.377 148.013 526.86 147.55 L 526.86 143.46 C 527.997 143.809 529.181 143.984 530.37 143.98 C 532.64 143.98 534.37 143.33 534.37 141.57 C 534.37 139.23 531.71 138.39 528.65 138.06 L 528.65 132.15 C 518.96 131.16 515.96 124.22 515.96 114.72 L 515.96 95.93 C 515.96 85.14 519.4 78.32 530.96 78.32 C 541.75 78.32 545.19 84.32 545.19 93.46 L 545.19 97.88 L 536.02 97.88 Z M 556.43 78.9 L 566.7 78.9 L 577.23 131.55 L 568.33 131.55 L 566.25 119.4 L 557.08 119.4 L 554.96 131.55 L 545.96 131.55 L 556.43 78.9 Z M 558.43 68.96 C 556.74 68.96 556.16 69.96 556.16 71.62 L 551.61 71.62 C 551.61 66.94 552.91 63.43 557.13 63.43 C 560.32 63.43 562.46 66.43 565.26 66.43 C 566.76 66.43 567.34 65.52 567.34 63.83 L 571.63 63.83 C 571.63 67.93 570.92 72.02 566.69 72.02 C 563.32 72.01 561.11 68.96 558.44 68.96 L 558.43 68.96 Z M 565.2 113.29 L 561.63 91.22 L 558.05 113.32 L 565.2 113.29 Z M 577.75 115.04 L 577.75 95.28 C 577.75 84.62 581.65 78.28 592.96 78.28 C 604.27 78.28 608.1 84.58 608.1 95.28 L 608.1 115.04 C 608.1 125.64 604.2 132.27 592.96 132.27 C 581.72 132.27 577.75 125.7 577.75 115.04 Z M 598.35 117.32 L 598.35 93.07 C 598.35 88.65 597.64 85.34 592.96 85.34 C 588.28 85.34 587.5 88.65 587.5 93.07 L 587.5 117.32 C 587.5 121.67 588.21 125.18 592.96 125.18 C 597.71 125.18 598.35 121.67 598.35 117.32 Z M 111.9 164.9 L 133.96 164.9 L 133.96 171.66 L 121.46 171.66 L 121.46 186.81 L 131.34 186.81 L 131.34 193.5 L 121.46 193.5 L 121.46 210.99 L 134.13 210.99 L 134.13 217.55 L 111.9 217.55 L 111.9 164.9 Z M 149.02 164.9 L 158.51 164.9 L 158.51 217.55 L 149.02 217.55 L 149.02 164.9 Z M 163.25 164.9 L 169.96 164.9 L 182.76 194.9 L 182.76 164.9 L 190.69 164.9 L 190.69 217.55 L 184.32 217.55 L 171.45 186.09 L 171.45 217.55 L 163.26 217.55 L 163.25 164.9 Z M 195.3 164.9 L 216.96 164.9 L 216.96 171.53 L 204.85 171.53 L 204.85 186.87 L 214.73 186.87 L 214.73 193.57 L 204.85 193.57 L 204.85 217.57 L 195.3 217.57 L 195.3 164.9 Z M 218.76 164.9 L 231.44 164.9 C 241.97 164.9 247.95 168.28 247.95 178.9 C 247.95 185.2 246.39 189.62 241.45 191.64 L 248.79 217.57 L 239.17 217.57 L 232.87 193.46 L 228.32 193.46 L 228.32 217.57 L 218.76 217.57 L 218.76 164.9 Z M 231.37 187.46 C 236.9 187.46 238.91 185.05 238.91 179.4 C 238.91 174.07 237.42 171.47 231.91 171.47 L 228.34 171.47 L 228.34 187.47 L 231.37 187.46 Z M 259.71 164.9 L 269.96 164.9 L 280.49 217.55 L 271.59 217.55 L 269.51 205.4 L 260.36 205.4 L 258.21 217.55 L 249.21 217.55 L 259.71 164.9 Z M 268.49 199.29 L 264.96 177.22 L 261.39 199.32 L 268.49 199.29 Z M 282.39 164.9 L 304.49 164.9 L 304.49 171.66 L 291.96 171.66 L 291.96 186.81 L 301.84 186.81 L 301.84 193.5 L 291.96 193.5 L 291.96 210.99 L 304.63 210.99 L 304.63 217.55 L 282.39 217.55 L 282.39 164.9 Z M 305.53 202.22 L 313.79 200.6 C 314.05 206.84 315.54 210.87 319.79 210.87 C 322.84 210.87 324.14 208.79 324.14 205.93 C 324.14 201.38 321.8 198.84 318.36 195.85 L 311.73 190.07 C 307.96 186.82 305.62 183.18 305.62 177.33 C 305.62 169.01 310.82 164.33 319.2 164.33 C 329.08 164.33 331.88 170.96 332.4 178.63 L 324.14 180.06 C 323.95 175.12 323.23 171.41 319.01 171.41 C 316.15 171.41 314.59 173.56 314.59 176.35 C 314.59 179.93 316.08 181.88 318.88 184.28 L 325.44 190.07 C 329.73 193.77 333.31 198.39 333.31 205.34 C 333.31 212.95 327.98 218.28 320.11 218.28 C 310.47 218.27 305.96 212.68 305.53 202.22 Z M 340.83 171.99 L 332.44 171.99 L 332.44 164.9 L 358.64 164.9 L 358.64 171.99 L 350.45 171.99 L 350.45 217.55 L 340.83 217.55 L 340.83 171.99 Z M 360.07 164.9 L 372.74 164.9 C 383.27 164.9 389.25 168.28 389.25 178.9 C 389.25 185.2 387.69 189.62 382.75 191.64 L 390.1 217.57 L 380.48 217.57 L 374.17 193.46 L 369.62 193.46 L 369.62 217.57 L 360.07 217.57 L 360.07 164.9 Z M 372.68 187.46 C 378.2 187.46 380.22 185.05 380.22 179.4 C 380.22 174.07 378.72 171.47 373.22 171.47 L 369.64 171.47 L 369.64 187.47 L 372.68 187.46 Z M 392.57 200.52 L 392.57 164.9 L 401.96 164.9 L 401.96 201.63 C 401.96 206.63 402.54 211.12 407.42 211.12 C 412.3 211.12 412.94 206.63 412.94 201.63 L 412.94 164.9 L 422.24 164.9 L 422.24 200.52 C 422.24 211.52 419.18 218.27 407.42 218.27 C 395.66 218.27 392.57 211.57 392.57 200.52 Z M 431.63 171.99 L 423.25 171.99 L 423.25 164.9 L 449.44 164.9 L 449.44 171.99 L 441.25 171.99 L 441.25 217.55 L 431.63 217.55 L 431.63 171.99 Z M 450.48 200.52 L 450.48 164.9 L 459.84 164.9 L 459.84 201.63 C 459.84 206.63 460.43 211.12 465.3 211.12 C 470.17 211.12 470.83 206.63 470.83 201.63 L 470.83 164.9 L 480.12 164.9 L 480.12 200.52 C 480.12 211.52 477.12 218.27 465.3 218.27 C 453.48 218.27 450.48 211.57 450.48 200.52 Z M 484.28 164.9 L 496.96 164.9 C 507.49 164.9 513.47 168.28 513.47 178.9 C 513.47 185.2 511.91 189.62 506.97 191.64 L 514.31 217.57 L 504.69 217.57 L 498.39 193.46 L 493.84 193.46 L 493.84 217.57 L 484.28 217.57 L 484.28 164.9 Z M 496.89 187.46 C 502.42 187.46 504.43 185.05 504.43 179.4 C 504.43 174.07 502.94 171.47 497.43 171.47 L 493.86 171.47 L 493.86 187.47 L 496.89 187.46 Z M 525.23 164.9 L 535.5 164.9 L 546.03 217.55 L 537.13 217.55 L 535.05 205.4 L 525.88 205.4 L 523.73 217.55 L 514.73 217.55 L 525.23 164.9 Z M 533.96 199.29 L 530.43 177.22 L 526.85 199.32 L 533.96 199.29 Z M 497.28 492.32 L 411.04 442.55 L 411.04 342.98 C 411.043 340.877 409.922 338.932 408.1 337.88 L 318.96 286.4 C 317.141 285.35 314.899 285.35 313.08 286.4 L 223.91 337.88 C 222.085 338.929 220.963 340.875 220.97 342.98 L 220.97 442.55 L 134.72 492.32 C 132.897 493.365 131.775 495.308 131.78 497.41 L 131.78 600.41 C 131.773 602.515 132.895 604.461 134.72 605.51 L 223.89 656.98 C 225.709 658.032 227.951 658.032 229.77 656.98 L 315.96 607.22 L 402.18 656.99 C 403.074 657.505 404.088 657.777 405.12 657.78 C 406.153 657.782 407.167 657.51 408.06 656.99 L 497.24 605.52 C 499.065 604.471 500.187 602.525 500.18 600.42 L 500.18 497.42 C 500.197 495.323 499.091 493.377 497.28 492.32 Z M 310.12 590.22 L 238.59 548.93 L 310.12 507.63 L 310.12 590.22 Z M 393.39 445.97 L 321.88 487.22 L 321.88 404.65 L 393.39 445.97 Z M 310.12 487.22 L 238.6 445.94 L 310.12 404.64 L 310.12 487.22 Z M 327.77 497.41 L 405.16 452.73 L 482.57 497.4 L 405.16 542.1 L 327.77 497.41 Z M 399.28 435.74 L 327.77 394.45 L 399.28 353.22 L 399.28 435.74 Z M 304.23 394.45 L 232.71 435.75 L 232.71 353.22 L 304.23 394.45 Z M 220.96 641.68 L 143.55 597 L 143.55 507.61 L 220.96 552.3 L 220.96 641.68 Z M 232.72 641.68 L 232.72 559.1 L 304.24 600.39 L 232.72 641.68 Z M 488.46 597 L 411.04 641.68 L 411.04 552.3 L 488.46 507.61 L 488.46 597 Z"/>
  </g>
</svg>