<?xml version="1.0" encoding="utf-8"?>
<svg viewBox="0 0 720 720" xmlns="http://www.w3.org/2000/svg">
  <defs>
    <style>.cls-2{fill:#fff}</style>
  </defs>
  <path fill="#bf8b2e" d="M-1.08-1.08h722.16v722.16H-1.08z" id="goal_background" data-name="goal background"/>
  <g id="ENG_text_graphics" data-name="ENG text &amp; graphics" transform="matrix(1, 0, 0, 1, 3.380005, 39.829742)">
    <path class="cls-2" d="M 210.89 97.44 L 210.89 78.66 C 210.89 67.87 214.33 61.04 225.89 61.04 C 236.68 61.04 240.13 67.04 240.13 76.19 L 240.13 80.61 L 230.9 80.61 L 230.9 76.06 C 230.9 71.64 230.83 68.06 225.96 68.06 C 221.09 68.06 220.56 71.83 220.56 76.64 L 220.56 99.46 C 220.56 105.18 221.73 107.91 225.96 107.91 C 230.7 107.91 230.9 104.2 230.9 99.52 L 230.9 94.78 L 240.13 94.78 L 240.13 99 C 240.13 108.3 237.01 115 225.89 115 C 214.33 115 210.89 107.71 210.89 97.44 Z M 244 97.77 L 244 78 C 244 67.34 247.9 61 259.21 61 C 270.52 61 274.35 67.31 274.35 78 L 274.35 97.77 C 274.35 108.36 270.45 114.99 259.21 114.99 C 247.97 114.99 244 108.43 244 97.77 Z M 264.6 100.04 L 264.6 75.8 C 264.6 71.38 263.89 68.06 259.21 68.06 C 254.53 68.06 253.75 71.38 253.75 75.8 L 253.75 100 C 253.75 104.36 254.46 107.87 259.21 107.87 C 263.96 107.87 264.64 104.4 264.64 100 L 264.6 100.04 Z M 279.52 61.63 L 286.22 61.63 L 299.03 91.63 L 299.03 61.63 L 307 61.63 L 307 114.28 L 300.63 114.28 L 287.72 82.82 L 287.72 114.28 L 279.52 114.28 L 279.52 61.63 Z M 311.7 98.94 L 320 97.31 C 320.27 103.55 321.76 107.58 326 107.58 C 329.06 107.58 330.36 105.5 330.36 102.64 C 330.36 98.09 328.02 95.56 324.58 92.57 L 317.94 86.78 C 314.17 83.53 311.83 79.89 311.83 74.04 C 311.83 65.72 317.03 61.04 325.42 61.04 C 335.3 61.04 338.1 67.67 338.62 75.34 L 330.36 76.77 C 330.17 71.83 329.45 68.13 325.22 68.13 C 322.37 68.13 320.8 70.27 320.8 73.07 C 320.8 76.64 322.3 78.59 325.09 81 L 331.66 86.78 C 335.95 90.49 339.53 95.1 339.53 102.06 C 339.53 109.66 334.2 114.99 326.33 114.99 C 316.64 115 312.09 109.4 311.7 98.94 Z M 342.77 97.25 L 342.77 61.63 L 352.13 61.63 L 352.13 98.35 C 352.13 103.35 352.71 107.84 357.59 107.84 C 362.47 107.84 363.11 103.36 363.11 98.35 L 363.11 61.63 L 372.41 61.63 L 372.41 97.25 C 372.41 108.25 369.35 114.99 357.59 114.99 C 345.83 114.99 342.77 108.3 342.77 97.25 Z M 378.78 61.63 L 388.72 61.63 L 396.2 98.09 L 403.93 61.63 L 413.62 61.63 L 414.62 114.28 L 407.46 114.28 L 406.68 77.68 L 399.21 114.28 L 393.4 114.28 L 385.8 77.55 L 385.08 114.28 L 377.87 114.28 L 378.78 61.63 Z M 419.6 97.77 L 419.6 78 C 419.6 67.34 423.5 61 434.81 61 C 446.12 61 450 67.35 450 78 L 450 97.77 C 450 108.36 446.1 114.99 434.86 114.99 C 423.62 114.99 419.6 108.43 419.6 97.77 Z M 440.2 100 L 440.2 75.8 C 440.2 71.38 439.49 68.06 434.81 68.06 C 430.13 68.06 429.35 71.38 429.35 75.8 L 429.35 100 C 429.35 104.36 430.06 107.87 434.81 107.87 C 439.56 107.87 440.2 104.4 440.2 100 Z M 468.93 61.63 L 491 61.63 L 491 68.39 L 478.49 68.39 L 478.49 83.53 L 488.37 83.53 L 488.37 90.23 L 478.49 90.23 L 478.49 107.71 L 491.16 107.71 L 491.16 114.28 L 468.93 114.28 L 468.93 61.63 Z M 211.73 147.63 L 227.2 147.63 C 236.63 147.63 240.66 153.09 240.66 162.63 C 240.66 172.96 235.07 176.93 226.55 176.93 L 221.29 176.93 L 221.29 200.33 L 211.73 200.33 L 211.73 147.63 Z M 225 170.12 C 230.27 170.12 231.63 168.12 231.63 162.51 C 231.63 156.9 230.92 154.39 225 154.39 L 221.3 154.39 L 221.3 170.12 L 225 170.12 Z M 244 147.63 L 256.67 147.63 C 267.2 147.63 273.18 151.01 273.18 161.63 C 273.18 167.94 271.62 172.36 266.68 174.37 L 274.03 200.31 L 264.41 200.31 L 258.1 176.19 L 253.55 176.19 L 253.55 200.31 L 244 200.31 L 244 147.63 Z M 256.61 170.18 C 262.13 170.18 264.15 167.78 264.15 162.12 C 264.15 156.79 262.65 154.19 257.15 154.19 L 253.57 154.19 L 253.57 170.19 L 256.61 170.18 Z M 277.44 183.77 L 277.44 164 C 277.44 153.34 281.35 147 292.66 147 C 303.97 147 307.8 153.31 307.8 164 L 307.8 183.76 C 307.8 194.35 303.9 200.98 292.66 200.98 C 281.42 200.98 277.44 194.43 277.44 183.77 Z M 298.05 186 L 298.05 161.8 C 298.05 157.38 297.34 154.06 292.66 154.06 C 287.98 154.06 287.2 157.38 287.2 161.8 L 287.2 186 C 287.2 190.36 287.91 193.87 292.66 193.87 C 297.41 193.87 298.05 190.4 298.05 186 Z M 312.93 147.63 L 325.35 147.63 C 338.15 147.63 342.06 152.76 342.06 164.01 L 342.06 183.18 C 342.06 194.75 338.06 200.28 325.74 200.28 L 312.93 200.28 L 312.93 147.63 Z M 325.48 193.63 C 332.04 193.63 332.31 190.12 332.31 183.56 L 332.31 163.36 C 332.31 157.05 331.65 154.45 325.31 154.45 L 322.45 154.45 L 322.45 193.58 L 325.48 193.63 Z M 346.8 183.25 L 346.8 147.63 L 356.16 147.63 L 356.16 184.35 C 356.16 189.35 356.74 193.84 361.62 193.84 C 366.5 193.84 367.14 189.36 367.14 184.35 L 367.14 147.63 L 376.44 147.63 L 376.44 183.25 C 376.44 194.3 373.38 200.99 361.62 200.99 C 349.86 200.99 346.8 194.3 346.8 183.25 Z M 401.2 166.61 L 401.2 162.06 C 401.2 157.64 401.14 154.06 396.26 154.06 C 391.38 154.06 390.87 157.83 390.87 162.64 L 390.87 185.46 C 390.87 191.18 392.04 193.91 396.26 193.91 C 401.01 193.91 401.2 190.2 401.2 185.52 L 401.2 180.78 L 410.43 180.78 L 410.43 185 C 410.43 193.91 407.57 200.47 397.5 201 L 397.5 204.25 C 402.31 204.25 405.56 206.4 405.56 210.43 C 405.56 215.04 401.46 216.99 396.72 216.99 C 395.134 216.974 393.559 216.735 392.04 216.28 L 392.04 212.18 C 393.176 212.534 394.36 212.709 395.55 212.7 C 397.82 212.7 399.55 212.05 399.55 210.3 C 399.55 207.96 396.89 207.11 393.83 206.79 L 393.83 200.87 C 384.21 199.87 381.22 192.94 381.22 183.45 L 381.22 164.66 C 381.22 153.87 384.67 147.04 396.22 147.04 C 407.01 147.04 410.45 153.04 410.45 162.19 L 410.45 166.61 L 401.2 166.61 Z M 423 147.63 L 433.27 147.63 L 443.8 200.28 L 434.9 200.28 L 432.82 188.12 L 423.65 188.12 L 421.51 200.28 L 412.51 200.28 L 423 147.63 Z M 425 137.68 C 423.31 137.68 422.72 138.68 422.72 140.35 L 418.17 140.35 C 418.17 135.67 419.47 132.16 423.7 132.16 C 426.88 132.16 429.03 135.16 431.82 135.16 C 433.32 135.16 433.9 134.25 433.9 132.56 L 438.19 132.56 C 438.19 136.65 437.48 140.75 433.25 140.75 C 429.93 140.74 427.72 137.68 425.06 137.68 L 425 137.68 Z M 431.82 182 L 428.24 159.9 L 424.67 182 L 431.82 182 Z M 445.79 183.77 L 445.79 164 C 445.79 153.34 449.69 147 461 147 C 472.31 147 476.15 153.31 476.15 164 L 476.15 183.76 C 476.15 194.35 472.25 200.98 461 200.98 C 449.75 200.98 445.79 194.43 445.79 183.77 Z M 466.4 186 L 466.4 161.8 C 466.4 157.38 465.68 154.06 461 154.06 C 456.32 154.06 455.54 157.38 455.54 161.8 L 455.54 186 C 455.54 190.36 456.26 193.87 461 193.87 C 465.74 193.87 466.4 190.4 466.4 186 Z M 211.73 233.63 L 224.41 233.63 C 234.94 233.63 240.92 237.01 240.92 247.63 C 240.92 253.94 239.36 258.36 234.42 260.37 L 241.76 286.31 L 232.14 286.31 L 225.84 262.19 L 221.29 262.19 L 221.29 286.31 L 211.73 286.31 L 211.73 233.63 Z M 224.34 256.18 C 229.87 256.18 231.88 253.78 231.88 248.12 C 231.88 242.79 230.39 240.19 224.88 240.19 L 221.31 240.19 L 221.31 256.19 L 224.34 256.18 Z M 246.25 233.63 L 268.35 233.63 L 268.35 240.39 L 255.8 240.39 L 255.8 255.53 L 265.68 255.53 L 265.68 262.23 L 255.8 262.23 L 255.8 279.71 L 268.48 279.71 L 268.48 286.28 L 246.25 286.28 L 246.25 233.63 Z M 270.81 270.94 L 279.07 269.31 C 279.33 275.55 280.82 279.58 285.07 279.58 C 288.12 279.58 289.43 277.5 289.43 274.64 C 289.43 270.09 287.08 267.56 283.64 264.57 L 277 258.78 C 273.23 255.53 270.89 251.89 270.89 246.04 C 270.89 237.72 276.09 233.04 284.48 233.04 C 294.36 233.04 297.15 239.67 297.67 247.34 L 289.42 248.77 C 289.22 243.83 288.51 240.13 284.28 240.13 C 281.42 240.13 279.86 242.27 279.86 245.07 C 279.86 248.64 281.36 250.59 284.15 253 L 290.72 258.78 C 295.01 262.49 298.58 267.1 298.58 274.06 C 298.58 281.66 293.25 286.99 285.39 286.99 C 275.76 287 271.2 281.4 270.81 270.94 Z M 302.27 233.63 L 317.74 233.63 C 327.17 233.63 331.2 239.09 331.2 248.63 C 331.2 258.96 325.61 262.93 317.09 262.93 L 311.83 262.93 L 311.83 286.33 L 302.27 286.33 L 302.27 233.63 Z M 315.53 256.12 C 320.8 256.12 322.16 254.12 322.16 248.51 C 322.16 242.9 321.45 240.39 315.53 240.39 L 311.83 240.39 L 311.83 256.12 L 315.53 256.12 Z M 333.73 269.77 L 333.73 250 C 333.73 239.34 337.63 233 348.94 233 C 360.25 233 364.09 239.31 364.09 250 L 364.09 269.76 C 364.09 280.35 360.19 286.98 348.94 286.98 C 337.69 286.98 333.73 280.43 333.73 269.77 Z M 354.34 272 L 354.34 247.8 C 354.34 243.38 353.62 240.06 348.94 240.06 C 344.26 240.06 343.48 243.38 343.48 247.8 L 343.48 272 C 343.48 276.36 344.2 279.87 348.94 279.87 C 353.68 279.87 354.34 276.4 354.34 272 Z M 369.22 233.63 L 375.92 233.63 L 388.72 263.63 L 388.72 233.63 L 396.65 233.63 L 396.65 286.28 L 390.28 286.28 L 377.41 254.82 L 377.41 286.28 L 369.22 286.28 L 369.22 233.63 Z M 401.4 270.94 L 409.65 269.31 C 409.91 275.55 411.41 279.58 415.65 279.58 C 418.71 279.58 420.01 277.5 420.01 274.64 C 420.01 270.09 417.67 267.56 414.22 264.57 L 407.59 258.78 C 403.82 255.53 401.48 251.89 401.48 246.04 C 401.48 237.72 406.68 233.04 415.07 233.04 C 424.95 233.04 427.74 239.67 428.26 247.34 L 420 248.77 C 419.8 243.83 419.09 240.13 414.86 240.13 C 412 240.13 410.44 242.27 410.44 245.07 C 410.44 248.64 411.94 250.59 414.73 253 L 421.3 258.78 C 425.59 262.49 429.16 267.1 429.16 274.06 C 429.16 281.66 423.83 286.99 415.97 286.99 C 406.34 287 401.79 281.4 401.4 270.94 Z M 440.46 233.63 L 450.73 233.63 L 461.26 286.28 L 452.36 286.28 L 450.28 274.12 L 441.11 274.12 L 439 286.28 L 430 286.28 L 440.46 233.63 Z M 449.24 268 L 445.66 245.9 L 442.09 268 L 449.24 268 Z M 446.9 217 L 455.9 217 L 448.16 230 L 443 230 L 446.9 217 Z M 460.16 233.63 L 468.61 233.63 L 475.56 270.87 L 482.13 233.63 L 490.77 233.63 L 480.18 286.28 L 470.75 286.28 L 460.16 233.63 Z M 494.22 233.63 L 516.32 233.63 L 516.32 240.39 L 503.77 240.39 L 503.77 255.53 L 513.65 255.53 L 513.65 262.23 L 503.77 262.23 L 503.77 279.71 L 516.45 279.71 L 516.45 286.28 L 494.22 286.28 L 494.22 233.63 Z M 520.35 233.63 L 529.84 233.63 L 529.84 286.28 L 520.35 286.28 L 520.35 233.63 Z M 534.71 270.94 L 542.97 269.31 C 543.23 275.55 544.72 279.58 548.97 279.58 C 551.97 279.58 553.32 277.5 553.32 274.64 C 553.32 270.09 550.98 267.56 547.54 264.57 L 540.91 258.78 C 537.13 255.53 534.79 251.89 534.79 246.04 C 534.79 237.72 540 233.04 548.38 233.04 C 558.26 233.04 561.06 239.67 561.58 247.34 L 553.32 248.77 C 553.13 243.83 552.41 240.13 548.19 240.13 C 545.33 240.13 543.77 242.27 543.77 245.07 C 543.77 248.64 545.26 250.59 548.06 253 L 554.62 258.78 C 558.91 262.49 562.49 267.1 562.49 274.06 C 562.49 281.66 557.16 286.99 549.29 286.99 C 539.65 287 535.1 281.4 534.71 270.94 Z M 544.11 373.67 C 512.11 348.37 469.62 347.85 454.11 351.55 L 452.31 351.97 C 434.36 356.21 405.84 363.22 372.46 404.65 C 372.27 404.88 372.08 405.11 371.9 405.35 L 371.48 405.86 C 371.129 406.324 370.933 406.888 370.92 407.47 C 370.921 407.956 371.045 408.434 371.28 408.86 L 372.06 410.14 C 376.25 417.14 381.53 426.14 386 434.48 C 386.046 434.56 386.086 434.644 386.12 434.73 C 386.61 435.689 387.593 436.294 388.67 436.3 C 389.416 436.308 390.135 436.021 390.67 435.5 C 390.88 435.23 391.09 434.94 391.28 434.65 C 420.91 393.65 444.2 388.02 459.96 384.31 L 461.85 383.87 C 470.03 381.87 501.13 382.02 523.58 399.75 C 541.1 413.58 550 435.59 550 465.16 C 550 514.77 525.87 534.16 505.62 541.72 C 474.26 553.45 444.18 537.72 443.96 537.65 L 442.61 537 C 425.38 529.52 399.67 514 375.43 465.28 C 326.52 367.19 285.67 358 258.64 351.83 L 257.19 351.51 C 244.88 348.72 202.13 346.74 168.53 373.56 C 150.97 387.56 130.06 414.8 130.06 464.97 C 130.06 495.53 136.34 515.72 152.48 536.97 C 156.02 541.81 192.19 588.28 262.12 574.87 C 273.31 572.73 288.48 567.39 305.12 554.87 L 320.51 568.75 C 321.538 569.661 323.104 569.585 324.04 568.58 C 324.456 568.125 324.678 567.526 324.66 566.91 L 324.66 566.7 L 335.76 498.4 L 335.76 497.64 C 335.752 496.946 335.455 496.286 334.94 495.82 C 334.496 495.413 333.912 495.194 333.31 495.21 L 332.83 495.21 L 332.11 495.29 L 266.69 513.6 L 265.5 513.8 C 265.013 513.895 264.572 514.153 264.25 514.53 C 263.307 515.552 263.388 517.149 264.43 518.07 L 265.2 518.78 L 279.86 532.02 C 270.39 538.15 262.14 540.96 255.86 542.18 C 205.26 551.83 180.28 518.7 179.33 517.4 L 179 517 C 167.24 501.57 163.27 488.45 163.27 465 C 163.27 435.34 172.01 413.31 189.27 399.55 C 211.15 382.09 241.33 381.99 249.85 383.93 L 251.32 384.26 C 273.47 389.26 303.83 396.14 345.63 480.12 C 367.35 523.72 394.54 552.23 428.77 567.26 C 445.02 575.127 462.826 579.255 480.88 579.34 C 493.268 579.378 505.562 577.197 517.18 572.9 C 537.02 565.5 583.18 540.2 583.18 465.19 C 583.18 415.06 561.95 387.77 544.18 373.7"/>
  </g>
</svg>